<?xml version="1.0" encoding="UTF-8"?>
<svg id="_レイヤー_1" data-name="レイヤー_1" xmlns="http://www.w3.org/2000/svg" version="1.1" viewBox="0 0 512 512">
  <!-- Generator: Adobe Illustrator 29.4.0, SVG Export Plug-In . SVG Version: 2.1.0 Build 152)  -->
  <defs>
    <style>
      .st0 {
        fill: #ccc;
      }

      .st1 {
        fill: #333;
      }
    </style>
  </defs>
  <rect class="st0" x="0" width="512" height="512"/>
  <g>
    <polygon class="st1" points="148.09 346.95 100.13 394.91 100.13 411.87 117.09 411.87 165.05 363.91 148.09 363.91 148.09 346.95"/>
    <polygon class="st1" points="394.91 100.13 247.52 247.52 247.52 264.48 264.48 264.48 411.87 117.09 411.87 100.13 394.91 100.13"/>
    <path class="st1" d="M315.95,307.47c0,4.68-3.8,8.48-8.48,8.48h-102.94c-4.68,0-8.48-3.8-8.48-8.48v-102.94c0-4.68,3.8-8.48,8.48-8.48h60.55l23.98-23.98h-69.03l-23.98,23.98h0s-23.98,23.98-23.98,23.98v119.9h119.9l23.98-23.98,23.98-23.98v-69.03l-23.98,23.98v60.55Z"/>
  </g>
</svg>