<svg width="100%" viewBox="0 0 896 209" fill="none" xmlns="http://www.w3.org/2000/svg">
<path d="M32.3066 165.476L0 197.63V209H11.4246L43.7312 176.847H32.3066V165.476Z" fill="#CCCCCC"/>
<path d="M198.572 0L99.2861 98.8148V110.185H110.711L209.997 11.3704V0H198.572Z" fill="#CCCCCC"/>
<path d="M145.383 139.008C145.383 142.15 142.828 144.693 139.671 144.693H70.3255C67.1686 144.693 64.6132 142.15 64.6132 139.008V69.9919C64.6132 66.8499 67.1686 64.3067 70.3255 64.3067H111.116L127.273 48.2267H80.7699L64.6132 64.3L48.4565 80.38V160.767H129.226L145.383 144.687L161.54 128.607V82.3244L145.383 98.4044V139.001V139.008Z" fill="#CCCCCC"/>
<path d="M279.632 69.7025H262.151C252.497 69.7025 244.669 77.4936 244.669 87.1012V130.598C244.669 140.206 252.497 147.997 262.151 147.997V148.03H279.632V147.997C289.279 147.997 297.094 140.226 297.114 130.632H297.148V121.865H288.339V130.598H288.306C288.306 135.362 284.425 139.23 279.632 139.23V139.264H262.151V139.23C257.364 139.23 253.477 135.368 253.477 130.598V87.1012C253.477 82.3378 257.358 78.4692 262.151 78.4692H279.632C284.418 78.4692 288.306 82.3311 288.306 87.1012H288.339V95.8679H297.148V87.1012H297.114C297.114 77.4936 289.286 69.7025 279.632 69.7025Z" fill="#CCCCCC"/>
<path d="M345.192 95.8005H327.71C320.47 95.8005 314.596 101.64 314.596 108.853H314.616V134.951H314.596C314.596 142.157 320.463 148.003 327.71 148.003H345.192C352.432 148.003 358.307 142.163 358.307 134.951V108.853C358.307 101.647 352.439 95.8005 345.192 95.8005ZM349.559 134.944C349.559 137.346 347.599 139.297 345.185 139.297H327.704C325.29 139.297 323.337 137.353 323.337 134.944H323.357V108.846H323.337C323.337 106.444 325.29 104.493 327.704 104.493H345.185C347.599 104.493 349.559 106.438 349.559 108.846V134.944Z" fill="#CCCCCC"/>
<path d="M485.046 95.8005H467.564C460.324 95.8005 454.449 101.64 454.449 108.853V134.951C454.449 142.157 460.317 148.003 467.564 148.003H485.046C492.286 148.003 498.16 142.163 498.16 134.951V131.688H489.419V134.951C489.419 137.353 487.466 139.304 485.046 139.304H467.564C465.151 139.304 463.19 137.36 463.19 134.951V126.252H498.153V108.853C498.153 101.647 492.286 95.8005 485.039 95.8005H485.046ZM489.419 117.546H463.197V108.846C463.197 106.444 465.157 104.493 467.571 104.493H485.052C487.466 104.493 489.426 106.438 489.426 108.846V117.546H489.419Z" fill="#CCCCCC"/>
<path d="M624.905 95.8005H607.424C600.184 95.8005 594.309 101.64 594.309 108.853V134.951C594.309 142.157 600.177 148.003 607.424 148.003H624.905C632.145 148.003 638.02 142.163 638.02 134.951V131.688H629.279V134.951C629.279 137.353 627.325 139.304 624.912 139.304H607.43C605.017 139.304 603.057 137.36 603.057 134.951V126.252H638.02V108.853C638.02 101.647 632.152 95.8005 624.905 95.8005ZM629.272 117.546H603.05V108.846C603.05 106.444 605.01 104.493 607.424 104.493H624.905C627.319 104.493 629.272 106.438 629.272 108.846V117.546Z" fill="#CCCCCC"/>
<path d="M415.118 95.8006H397.637C396.109 95.8006 394.649 96.063 393.283 96.5407V69.7025H384.542V147.997H393.283V108.51C393.459 106.269 395.338 104.5 397.637 104.5H415.118C417.532 104.5 419.486 106.444 419.486 108.846V147.997H428.226V108.846C428.226 101.641 422.359 95.7939 415.112 95.7939L415.118 95.8006Z" fill="#CCCCCC"/>
<path d="M673.045 139.297H664.304V147.997H673.045V139.297Z" fill="#CCCCCC"/>
<path d="M738.658 95.8005H729.917V147.997H738.658V95.8005Z" fill="#CCCCCC"/>
<path d="M738.658 78.4019H729.917V87.1012H738.658V78.4019Z" fill="#CCCCCC"/>
<path d="M812.958 95.8005H804.218C800.858 95.8005 797.795 97.0587 795.477 99.1242C793.158 97.0587 790.096 95.8005 786.736 95.8005H777.995C776.461 95.8005 774.994 96.0629 773.628 96.5474V95.8005H764.887V147.997H773.628V108.846C773.628 106.444 775.582 104.493 777.995 104.493H786.736C789.149 104.493 791.103 106.438 791.103 108.846V147.997H799.844V108.846C799.844 106.444 801.797 104.493 804.211 104.493H812.952C815.365 104.493 817.319 106.438 817.319 108.846V147.997H826.06V108.846C826.06 101.64 820.192 95.7938 812.945 95.7938L812.958 95.8005Z" fill="#CCCCCC"/>
<path d="M554.972 95.8005H537.49C535.963 95.8005 534.502 96.0629 533.137 96.5406V95.8005H524.396V147.997H533.137V108.503C533.313 106.263 535.192 104.493 537.49 104.493H554.972C557.385 104.493 559.346 106.438 559.346 108.846V113.199H568.087V108.846C568.087 101.64 562.219 95.7938 554.972 95.7938V95.8005Z" fill="#CCCCCC"/>
<path d="M887.259 95.8005V96.5608C885.894 96.0764 884.427 95.8005 882.885 95.8005H865.404C858.164 95.8005 852.289 101.64 852.289 108.853V134.951C852.289 142.157 858.157 148.003 865.404 148.003H882.885C884.42 148.003 885.887 147.741 887.259 147.257V161.049C887.259 163.451 885.306 165.402 882.885 165.402H865.404C862.99 165.402 861.03 163.458 861.03 161.049V156.696H852.289V161.049C852.289 168.255 858.157 174.102 865.404 174.102H882.885C890.125 174.102 896 168.262 896 161.049V95.8005H887.259ZM887.259 134.944C887.259 137.346 885.306 139.297 882.885 139.297H865.404C862.99 139.297 861.03 137.353 861.03 134.944V108.846C861.03 106.444 862.99 104.493 865.404 104.493H882.885C885.299 104.493 887.259 106.438 887.259 108.846V134.944Z" fill="#CCCCCC"/>
</svg>
