<svg width="100%" viewBox="0 0 171 40" fill="none" xmlns="http://www.w3.org/2000/svg">
<path d="M6.16566 31.6701L0 37.8238V40H2.18037L8.34603 33.8463H6.16566V31.6701Z" fill="#CCCCCC"/>
<path d="M37.8971 0L18.9485 18.9119V21.0881H21.1289L40.0774 2.17615V0H37.8971Z" fill="#CCCCCC"/>
<path d="M27.7461 26.6044C27.7461 27.2058 27.2584 27.6925 26.6559 27.6925H13.4215C12.819 27.6925 12.3313 27.2058 12.3313 26.6044V13.3956C12.3313 12.7942 12.819 12.3075 13.4215 12.3075H21.2063L24.2898 9.22998H15.4148L12.3313 12.3062L9.24785 15.3837V30.7687H24.6626L27.7461 27.6912L30.8296 24.6137V15.7559L27.7461 18.8334V26.6031V26.6044Z" fill="#CCCCCC"/>
<path d="M53.3673 13.3402H50.031C48.1887 13.3402 46.6947 14.8313 46.6947 16.6701V24.9949C46.6947 26.8336 48.1887 28.3248 50.031 28.3248V28.3312H53.3673V28.3248C55.2084 28.3248 56.6998 26.8375 56.7037 25.0013H56.7101V23.3235H55.0291V24.9949H55.0226C55.0226 25.9065 54.2821 26.6469 53.3673 26.6469V26.6534H50.031V26.6469C49.1176 26.6469 48.3757 25.9078 48.3757 24.9949V16.6701C48.3757 15.7584 49.1163 15.018 50.031 15.018H53.3673C54.2808 15.018 55.0226 15.7571 55.0226 16.6701H55.0291V18.3479H56.7101V16.6701H56.7037C56.7037 14.8313 55.2097 13.3402 53.3673 13.3402Z" fill="#CCCCCC"/>
<path d="M65.8793 18.3351H62.5429C61.1612 18.3351 60.04 19.4527 60.04 20.8331H60.0439V25.828H60.04C60.04 27.2071 61.1599 28.326 62.5429 28.326H65.8793C67.261 28.326 68.3822 27.2083 68.3822 25.828V20.8331C68.3822 19.454 67.2623 18.3351 65.8793 18.3351ZM66.7127 25.8267C66.7127 26.2864 66.3386 26.6598 65.878 26.6598H62.5417C62.0811 26.6598 61.7082 26.2877 61.7082 25.8267H61.7121V20.8318H61.7082C61.7082 20.3721 62.0811 19.9987 62.5417 19.9987H65.878C66.3386 19.9987 66.7127 20.3708 66.7127 20.8318V25.8267Z" fill="#CCCCCC"/>
<path d="M92.5701 18.3351H89.2337C87.852 18.3351 86.7308 19.4527 86.7308 20.8331V25.828C86.7308 27.2071 87.8507 28.326 89.2337 28.326H92.5701C93.9518 28.326 95.073 27.2083 95.073 25.828V25.2035H93.4048V25.828C93.4048 26.2877 93.0319 26.6611 92.5701 26.6611H89.2337C88.7731 26.6611 88.399 26.289 88.399 25.828V24.163H95.0717V20.8331C95.0717 19.454 93.9518 18.3351 92.5688 18.3351H92.5701ZM93.4048 22.4968H88.4003V20.8318C88.4003 20.3721 88.7744 19.9987 89.235 19.9987H92.5713C93.0319 19.9987 93.4061 20.3708 93.4061 20.8318V22.4968H93.4048Z" fill="#CCCCCC"/>
<path d="M119.262 18.3351H115.926C114.544 18.3351 113.423 19.4527 113.423 20.8331V25.828C113.423 27.2071 114.543 28.326 115.926 28.326H119.262C120.644 28.326 121.765 27.2083 121.765 25.828V25.2035H120.097V25.828C120.097 26.2877 119.724 26.6611 119.263 26.6611H115.927C115.466 26.6611 115.092 26.289 115.092 25.828V24.163H121.765V20.8331C121.765 19.454 120.645 18.3351 119.262 18.3351ZM120.096 22.4968H115.091V20.8318C115.091 20.3721 115.465 19.9987 115.926 19.9987H119.262C119.723 19.9987 120.096 20.3708 120.096 20.8318V22.4968Z" fill="#CCCCCC"/>
<path d="M79.2247 18.3351H75.8883C75.5968 18.3351 75.3181 18.3853 75.0575 18.4767V13.3402H73.3893V28.3247H75.0575V20.7674C75.091 20.3387 75.4497 20 75.8883 20H79.2247C79.6853 20 80.0581 20.3721 80.0581 20.8318V28.3247H81.7263V20.8318C81.7263 19.4527 80.6064 18.3338 79.2234 18.3338L79.2247 18.3351Z" fill="#CCCCCC"/>
<path d="M128.449 26.6598H126.781V28.3247H128.449V26.6598Z" fill="#CCCCCC"/>
<path d="M140.972 18.3351H139.303V28.3248H140.972V18.3351Z" fill="#CCCCCC"/>
<path d="M140.972 15.0051H139.303V16.6701H140.972V15.0051Z" fill="#CCCCCC"/>
<path d="M155.152 18.3351H153.484C152.842 18.3351 152.258 18.5758 151.815 18.9712C151.373 18.5758 150.788 18.3351 150.147 18.3351H148.479C148.186 18.3351 147.906 18.3853 147.646 18.478V18.3351H145.977V28.3247H147.646V20.8318C147.646 20.3721 148.018 19.9987 148.479 19.9987H150.147C150.608 19.9987 150.981 20.3708 150.981 20.8318V28.3247H152.649V20.8318C152.649 20.3721 153.022 19.9987 153.482 19.9987H155.15C155.611 19.9987 155.984 20.3708 155.984 20.8318V28.3247H157.652V20.8318C157.652 19.4527 156.532 18.3338 155.149 18.3338L155.152 18.3351Z" fill="#CCCCCC"/>
<path d="M105.915 18.3351H102.579C102.288 18.3351 102.009 18.3853 101.748 18.4767V18.3351H100.08V28.3247H101.748V20.7662C101.782 20.3374 102.14 19.9987 102.579 19.9987H105.915C106.376 19.9987 106.75 20.3708 106.75 20.8318V21.6649H108.418V20.8318C108.418 19.4527 107.298 18.3338 105.915 18.3338V18.3351Z" fill="#CCCCCC"/>
<path d="M169.332 18.3351V18.4806C169.071 18.3878 168.791 18.3351 168.497 18.3351H165.161C163.779 18.3351 162.658 19.4527 162.658 20.8331V25.828C162.658 27.2071 163.778 28.326 165.161 28.326H168.497C168.79 28.326 169.07 28.2758 169.332 28.1831V30.8228C169.332 31.2825 168.959 31.6559 168.497 31.6559H165.161C164.7 31.6559 164.326 31.2838 164.326 30.8228V29.9897H162.658V30.8228C162.658 32.2019 163.778 33.3209 165.161 33.3209H168.497C169.879 33.3209 171 32.2032 171 30.8228V18.3351H169.332ZM169.332 25.8267C169.332 26.2864 168.959 26.6598 168.497 26.6598H165.161C164.7 26.6598 164.326 26.2877 164.326 25.8267V20.8318C164.326 20.3721 164.7 19.9987 165.161 19.9987H168.497C168.958 19.9987 169.332 20.3708 169.332 20.8318V25.8267Z" fill="#CCCCCC"/>
</svg>
