<svg width="100%" viewBox="0 0 878 288" fill="none" xmlns="http://www.w3.org/2000/svg">
<path d="M321.427 135.688H304.714C295.481 135.688 288 143.16 288 152.382V194.114C288 203.336 295.481 210.809 304.714 210.809V210.839H321.427V210.809C330.64 210.809 338.121 203.356 338.141 194.154H338.171V185.742H329.749V194.124H329.719C329.719 198.695 326.004 202.406 321.427 202.406V202.436H304.714V202.406C300.137 202.406 296.422 198.695 296.422 194.124V152.392C296.422 147.821 300.137 144.11 304.714 144.11H321.427C326.004 144.11 329.719 147.821 329.719 152.392H329.749V160.805H338.171V152.392H338.141C338.141 143.17 330.66 135.698 321.427 135.698V135.688Z" fill="white"/>
<path d="M384.086 160.725H367.372C360.453 160.725 354.845 166.326 354.845 173.238H354.865V198.275H354.845C354.845 205.187 360.453 210.789 367.372 210.789H384.086C391.006 210.789 396.614 205.187 396.614 198.275V173.238C396.614 166.326 391.006 160.725 384.086 160.725ZM388.262 198.285C388.262 200.586 386.389 202.456 384.086 202.456H367.372C365.069 202.456 363.197 200.586 363.197 198.285H363.217V173.248H363.197C363.197 170.947 365.069 169.077 367.372 169.077H384.086C386.389 169.077 388.262 170.947 388.262 173.248V198.285Z" fill="white"/>
<path d="M517.765 160.725H501.052C494.132 160.725 488.524 166.326 488.524 173.238V198.275C488.524 205.187 494.132 210.789 501.052 210.789H517.765C524.685 210.789 530.293 205.187 530.293 198.275V195.144H521.941V198.275C521.941 200.576 520.069 202.446 517.765 202.446H501.052C498.749 202.446 496.876 200.576 496.876 198.275V189.933H530.293V173.238C530.293 166.326 524.685 160.725 517.765 160.725ZM521.941 181.59H496.876V173.248C496.876 170.947 498.749 169.077 501.052 169.077H517.765C520.069 169.077 521.941 170.947 521.941 173.248V181.59Z" fill="white"/>
<path d="M651.445 160.725H634.731C627.811 160.725 622.203 166.326 622.203 173.238V198.275C622.203 205.187 627.811 210.789 634.731 210.789H651.445C658.365 210.789 663.973 205.187 663.973 198.275V195.144H655.621V198.275C655.621 200.576 653.748 202.446 651.445 202.446H634.731C632.428 202.446 630.555 200.576 630.555 198.275V189.933H663.973V173.238C663.973 166.326 658.365 160.725 651.445 160.725ZM655.631 181.59H630.565V173.248C630.565 170.947 632.438 169.077 634.741 169.077H651.455C653.758 169.077 655.631 170.947 655.631 173.248V181.59Z" fill="white"/>
<path d="M450.931 160.725H434.217C432.755 160.725 431.363 160.975 430.051 161.435V135.688H421.699V210.799H430.051V172.918C430.221 170.767 432.014 169.077 434.217 169.077H450.931C453.234 169.077 455.107 170.947 455.107 173.248V210.799H463.459V173.248C463.459 166.336 457.851 160.735 450.931 160.735V160.725Z" fill="white"/>
<path d="M695.607 202.456H687.256V210.799H695.607V202.456Z" fill="white"/>
<path d="M730.937 160.725H722.586V210.799H730.937V160.725Z" fill="white"/>
<path d="M730.937 144.04H722.586V152.382H730.937V144.04Z" fill="white"/>
<path d="M801.958 160.725H793.606C790.392 160.725 787.468 161.935 785.254 163.915C783.041 161.935 780.107 160.725 776.903 160.725H768.551C767.089 160.725 765.677 160.975 764.375 161.445V160.725H756.023V210.799H764.375V173.248C764.375 170.947 766.248 169.077 768.551 169.077H776.903C779.206 169.077 781.079 170.947 781.079 173.248V210.799H789.43V173.248C789.43 170.947 791.303 169.077 793.606 169.077H801.958C804.261 169.077 806.134 170.947 806.134 173.248V210.799H814.486V173.248C814.486 166.336 808.878 160.735 801.958 160.735V160.725Z" fill="white"/>
<path d="M584.61 160.725H567.897C566.434 160.725 565.042 160.975 563.731 161.435V160.725H555.379V210.799H563.731V172.918C563.901 170.767 565.693 169.077 567.897 169.077H584.61C586.913 169.077 588.786 170.947 588.786 173.248V177.419H597.138V173.248C597.138 166.336 591.53 160.735 584.61 160.735V160.725Z" fill="white"/>
<path d="M868.803 160.725V161.455C867.491 160.995 866.089 160.725 864.627 160.725H847.913C840.993 160.725 835.385 166.326 835.385 173.238V198.275C835.385 205.187 840.993 210.789 847.913 210.789H864.627C866.089 210.789 867.501 210.538 868.803 210.078V223.312C868.803 225.613 866.93 227.483 864.627 227.483H847.913C845.61 227.483 843.737 225.613 843.737 223.312V219.141H835.385V223.312C835.385 230.224 840.993 235.825 847.913 235.825H864.627C871.547 235.825 877.155 230.224 877.155 223.312V160.725H868.803ZM868.803 198.285C868.803 200.586 866.93 202.456 864.627 202.456H847.913C845.61 202.456 843.737 200.586 843.737 198.285V173.248C843.737 170.947 845.61 169.077 847.913 169.077H864.627C866.93 169.077 868.803 170.947 868.803 173.248V198.285Z" fill="white"/>
<path d="M44.3105 228.095L0 272.348V288H15.6625L59.973 243.74H44.3105V228.095Z" fill="white"/>
<path d="M272.33 0.328094L136.169 136.342V151.986H151.831L288 15.9728V0.328094H272.33Z" fill="white"/>
<path d="M199.386 191.661C199.386 195.985 195.88 199.487 191.551 199.487H96.4486C92.1201 199.487 88.6137 195.985 88.6137 191.661V96.6668C88.6137 92.3433 92.1201 88.8408 96.4486 88.8408H152.391L174.543 66.7145H110.773L88.621 88.8408L66.4694 110.967V221.606H177.235L199.386 199.48L221.538 177.354V113.656L199.386 135.782V191.661Z" fill="white"/>
</svg>
