<svg
                                                width="100%"
                                                viewBox="0 0 51 51"
                                                fill="none"
                                                xmlns="http://www.w3.org/2000/svg"
                                            >
                                                <path
                                                    d="M36.98 14.26H13.52C12.9898 14.26 12.56 14.6898 12.56 15.22V27.58C12.56 28.1102 12.9898 28.54 13.52 28.54H36.98C37.5102 28.54 37.94 28.1102 37.94 27.58V15.22C37.94 14.6898 37.5102 14.26 36.98 14.26Z"
                                                    stroke="white"
                                                    strokeWidth="0.5"
                                                    strokeMiterlimit="10"
                                                />
                                                <path
                                                    d="M37.8 13.24H12.69C12.1598 13.24 11.73 13.6698 11.73 14.2V28.6C11.73 29.1302 12.1598 29.56 12.69 29.56H37.8C38.3302 29.56 38.76 29.1302 38.76 28.6V14.2C38.76 13.6698 38.3302 13.24 37.8 13.24Z"
                                                    stroke="white"
                                                    strokeWidth="0.5"
                                                    strokeMiterlimit="10"
                                                />
                                                <path
                                                    d="M40.89 36.57H9.61002C8.84002 36.57 8.35002 35.74 8.72002 35.07L11.45 30.09C11.63 29.76 11.97 29.56 12.34 29.56H38.17C38.54 29.56 38.88 29.76 39.06 30.09L41.79 35.07C42.16 35.75 41.67 36.57 40.9 36.57H40.89Z"
                                                    stroke="white"
                                                    strokeWidth="0.5"
                                                    strokeMiterlimit="10"
                                                />
                                                <path
                                                    d="M25.25 50.25C39.0571 50.25 50.25 39.0571 50.25 25.25C50.25 11.4429 39.0571 0.25 25.25 0.25C11.4429 0.25 0.25 11.4429 0.25 25.25C0.25 39.0571 11.4429 50.25 25.25 50.25Z"
                                                    stroke="white"
                                                    strokeWidth="0.5"
                                                    strokeMiterlimit="10"
                                                />
                                            </svg>