<svg width="100%" viewBox="0 0 64 64" fill="none" xmlns="http://www.w3.org/2000/svg">
<path d="M19.2454 58.1831H8.73227C7.12333 58.1831 5.82381 56.8835 5.82381 55.2746V44.7615H0V64.0069H19.2454V58.1899V58.1831Z" fill="#1E1E1E"/>
<path d="M5.81693 19.2454V8.73227C5.81693 7.12333 7.11646 5.82381 8.7254 5.82381H19.2385V0H0V19.2454H5.81693Z" fill="#1E1E1E"/>
<path d="M58.1831 44.7615V55.2746C58.1831 56.8836 56.8835 58.1831 55.2746 58.1831H44.7615V64H64.0069V44.7546H58.1899L58.1831 44.7615Z" fill="#1E1E1E"/>
<path d="M44.7615 5.81693H55.2746C56.8836 5.81693 58.1831 7.11646 58.1831 8.7254V19.2385H64V0H44.7546V5.81693H44.7615Z" fill="#1E1E1E"/>
</svg>
