<svg width="100%" height="100%" viewBox="0 0 594 593" fill="none" xmlns="http://www.w3.org/2000/svg">
                            <path d="M257.906 289.864H260.186V307H257.906V289.864ZM265.172 300.904C265.172 301.48 265.244 302.048 265.388 302.608C265.548 303.152 265.78 303.64 266.084 304.072C266.404 304.504 266.804 304.848 267.284 305.104C267.78 305.36 268.356 305.488 269.012 305.488C269.7 305.488 270.284 305.352 270.764 305.08C271.244 304.808 271.636 304.456 271.94 304.024C272.244 303.576 272.46 303.072 272.588 302.512C272.732 301.952 272.804 301.384 272.804 300.808C272.804 300.2 272.732 299.616 272.588 299.056C272.444 298.48 272.212 297.976 271.892 297.544C271.588 297.112 271.188 296.768 270.692 296.512C270.196 296.24 269.596 296.104 268.892 296.104C268.204 296.104 267.62 296.24 267.14 296.512C266.66 296.784 266.276 297.144 265.988 297.592C265.7 298.04 265.492 298.552 265.364 299.128C265.236 299.704 265.172 300.296 265.172 300.904ZM274.772 307H272.732V305.32H272.684C272.348 306.008 271.82 306.504 271.1 306.808C270.38 307.112 269.588 307.264 268.724 307.264C267.764 307.264 266.924 307.088 266.204 306.736C265.5 306.384 264.908 305.912 264.428 305.32C263.964 304.728 263.612 304.04 263.372 303.256C263.132 302.472 263.012 301.64 263.012 300.76C263.012 299.88 263.124 299.048 263.348 298.264C263.588 297.48 263.94 296.8 264.404 296.224C264.884 295.632 265.476 295.168 266.18 294.832C266.9 294.48 267.732 294.304 268.676 294.304C268.996 294.304 269.34 294.336 269.708 294.4C270.076 294.464 270.444 294.576 270.812 294.736C271.18 294.88 271.524 295.08 271.844 295.336C272.18 295.576 272.46 295.88 272.684 296.248H272.732V289.864H274.772V307ZM286.527 299.608C286.495 299.128 286.383 298.672 286.191 298.24C286.015 297.808 285.767 297.44 285.447 297.136C285.143 296.816 284.775 296.568 284.343 296.392C283.927 296.2 283.463 296.104 282.951 296.104C282.423 296.104 281.943 296.2 281.511 296.392C281.095 296.568 280.735 296.816 280.431 297.136C280.127 297.456 279.887 297.832 279.711 298.264C279.535 298.68 279.431 299.128 279.399 299.608H286.527ZM288.495 303.064C288.223 304.456 287.623 305.504 286.695 306.208C285.767 306.912 284.599 307.264 283.191 307.264C282.199 307.264 281.335 307.104 280.599 306.784C279.879 306.464 279.271 306.016 278.775 305.44C278.279 304.864 277.903 304.176 277.647 303.376C277.407 302.576 277.271 301.704 277.239 300.76C277.239 299.816 277.383 298.952 277.671 298.168C277.959 297.384 278.359 296.704 278.871 296.128C279.399 295.552 280.015 295.104 280.719 294.784C281.439 294.464 282.223 294.304 283.071 294.304C284.175 294.304 285.087 294.536 285.807 295C286.543 295.448 287.127 296.024 287.559 296.728C288.007 297.432 288.311 298.2 288.471 299.032C288.647 299.864 288.719 300.656 288.687 301.408H279.399C279.383 301.952 279.447 302.472 279.591 302.968C279.735 303.448 279.967 303.88 280.287 304.264C280.607 304.632 281.015 304.928 281.511 305.152C282.007 305.376 282.591 305.488 283.263 305.488C284.127 305.488 284.831 305.288 285.375 304.888C285.935 304.488 286.303 303.88 286.479 303.064H288.495ZM290.802 294.592H292.722V296.56H292.77C293.618 295.056 294.962 294.304 296.802 294.304C297.618 294.304 298.298 294.416 298.842 294.64C299.386 294.864 299.826 295.176 300.162 295.576C300.498 295.976 300.73 296.456 300.858 297.016C301.002 297.56 301.074 298.168 301.074 298.84V307H299.034V298.6C299.034 297.832 298.81 297.224 298.362 296.776C297.914 296.328 297.298 296.104 296.514 296.104C295.89 296.104 295.346 296.2 294.882 296.392C294.434 296.584 294.058 296.856 293.754 297.208C293.45 297.56 293.218 297.976 293.058 298.456C292.914 298.92 292.842 299.432 292.842 299.992V307H290.802V294.592ZM306.97 294.592H309.442V296.392H306.97V304.096C306.97 304.336 306.986 304.528 307.018 304.672C307.066 304.816 307.146 304.928 307.258 305.008C307.37 305.088 307.522 305.144 307.714 305.176C307.922 305.192 308.186 305.2 308.506 305.2H309.442V307H307.882C307.354 307 306.898 306.968 306.514 306.904C306.146 306.824 305.842 306.688 305.602 306.496C305.378 306.304 305.21 306.032 305.098 305.68C304.986 305.328 304.93 304.864 304.93 304.288V296.392H302.818V294.592H304.93V290.872H306.97V294.592ZM313.868 292.36H311.828V289.864H313.868V292.36ZM311.828 294.592H313.868V307H311.828V294.592ZM319.86 294.592H322.332V296.392H319.86V304.096C319.86 304.336 319.876 304.528 319.908 304.672C319.956 304.816 320.036 304.928 320.148 305.008C320.26 305.088 320.412 305.144 320.604 305.176C320.812 305.192 321.076 305.2 321.396 305.2H322.332V307H320.772C320.244 307 319.788 306.968 319.404 306.904C319.036 306.824 318.732 306.688 318.492 306.496C318.268 306.304 318.1 306.032 317.988 305.68C317.876 305.328 317.82 304.864 317.82 304.288V296.392H315.708V294.592H317.82V290.872H319.86V294.592ZM329.471 308.656C329.231 309.264 328.991 309.776 328.751 310.192C328.527 310.608 328.271 310.944 327.983 311.2C327.711 311.472 327.399 311.664 327.047 311.776C326.711 311.904 326.319 311.968 325.871 311.968C325.631 311.968 325.391 311.952 325.151 311.92C324.911 311.888 324.679 311.832 324.455 311.752V309.88C324.631 309.96 324.831 310.024 325.055 310.072C325.295 310.136 325.495 310.168 325.655 310.168C326.071 310.168 326.415 310.064 326.687 309.856C326.975 309.664 327.191 309.384 327.335 309.016L328.175 306.928L323.255 294.592H325.559L329.183 304.744H329.23L332.711 294.592H334.871L329.471 308.656Z" fill="white"/>
                            <path d="M269.877 58.048H272.853C273.717 58.0587 274.347 57.8827 274.741 57.52C275.147 57.1573 275.349 56.6347 275.349 55.952C275.349 55.2693 275.147 54.752 274.741 54.4C274.347 54.0373 273.717 53.856 272.853 53.856H269.877V58.048ZM268.357 52.576H273.365C274.517 52.576 275.387 52.8747 275.973 53.472C276.571 54.0587 276.869 54.8853 276.869 55.952C276.869 57.0187 276.571 57.8507 275.973 58.448C275.387 59.0453 274.517 59.3387 273.365 59.328H269.877V64H268.357V52.576ZM279.5 59.872C279.5 60.3733 279.564 60.8213 279.692 61.216C279.831 61.6 280.018 61.9253 280.252 62.192C280.487 62.448 280.759 62.6453 281.068 62.784C281.388 62.9227 281.724 62.992 282.076 62.992C282.428 62.992 282.759 62.9227 283.068 62.784C283.388 62.6453 283.666 62.448 283.9 62.192C284.135 61.9253 284.316 61.6 284.444 61.216C284.583 60.8213 284.652 60.3733 284.652 59.872C284.652 59.3707 284.583 58.928 284.444 58.544C284.316 58.1493 284.135 57.8187 283.9 57.552C283.666 57.2853 283.388 57.0827 283.068 56.944C282.759 56.8053 282.428 56.736 282.076 56.736C281.724 56.736 281.388 56.8053 281.068 56.944C280.759 57.0827 280.487 57.2853 280.252 57.552C280.018 57.8187 279.831 58.1493 279.692 58.544C279.564 58.928 279.5 59.3707 279.5 59.872ZM278.06 59.872C278.06 59.264 278.146 58.6987 278.316 58.176C278.487 57.6427 278.743 57.184 279.084 56.8C279.426 56.4053 279.847 56.096 280.348 55.872C280.85 55.648 281.426 55.536 282.076 55.536C282.738 55.536 283.314 55.648 283.804 55.872C284.306 56.096 284.727 56.4053 285.068 56.8C285.41 57.184 285.666 57.6427 285.836 58.176C286.007 58.6987 286.092 59.264 286.092 59.872C286.092 60.48 286.007 61.0453 285.836 61.568C285.666 62.0907 285.41 62.5493 285.068 62.944C284.727 63.328 284.306 63.632 283.804 63.856C283.314 64.0693 282.738 64.176 282.076 64.176C281.426 64.176 280.85 64.0693 280.348 63.856C279.847 63.632 279.426 63.328 279.084 62.944C278.743 62.5493 278.487 62.0907 278.316 61.568C278.146 61.0453 278.06 60.48 278.06 59.872ZM288.528 61.392C288.539 61.6907 288.608 61.9467 288.736 62.16C288.864 62.3627 289.029 62.528 289.232 62.656C289.445 62.7733 289.68 62.8587 289.936 62.912C290.203 62.9653 290.475 62.992 290.752 62.992C290.965 62.992 291.189 62.976 291.424 62.944C291.659 62.912 291.872 62.8533 292.064 62.768C292.267 62.6827 292.432 62.56 292.56 62.4C292.688 62.2293 292.752 62.016 292.752 61.76C292.752 61.408 292.619 61.1413 292.352 60.96C292.085 60.7787 291.749 60.6347 291.344 60.528C290.949 60.4107 290.517 60.3093 290.048 60.224C289.579 60.128 289.141 60 288.736 59.84C288.341 59.6693 288.011 59.4347 287.744 59.136C287.477 58.8373 287.344 58.4213 287.344 57.888C287.344 57.472 287.435 57.1147 287.616 56.816C287.808 56.5173 288.048 56.2773 288.336 56.096C288.635 55.904 288.965 55.7653 289.328 55.68C289.701 55.584 290.069 55.536 290.432 55.536C290.901 55.536 291.333 55.5787 291.728 55.664C292.123 55.7387 292.469 55.8773 292.768 56.08C293.077 56.272 293.323 56.5387 293.504 56.88C293.685 57.2107 293.792 57.6267 293.824 58.128H292.464C292.443 57.8613 292.373 57.6427 292.256 57.472C292.139 57.2907 291.989 57.1467 291.808 57.04C291.627 56.9333 291.424 56.8587 291.2 56.816C290.987 56.7627 290.768 56.736 290.544 56.736C290.341 56.736 290.133 56.752 289.92 56.784C289.717 56.816 289.531 56.8747 289.36 56.96C289.189 57.0347 289.051 57.1413 288.944 57.28C288.837 57.408 288.784 57.5787 288.784 57.792C288.784 58.0267 288.864 58.224 289.024 58.384C289.195 58.5333 289.408 58.6613 289.664 58.768C289.92 58.864 290.208 58.9493 290.528 59.024C290.848 59.088 291.168 59.1573 291.488 59.232C291.829 59.3067 292.16 59.3973 292.48 59.504C292.811 59.6107 293.099 59.7547 293.344 59.936C293.6 60.1067 293.803 60.3253 293.952 60.592C294.112 60.8587 294.192 61.1893 294.192 61.584C294.192 62.0853 294.085 62.5013 293.872 62.832C293.669 63.1627 293.397 63.4293 293.056 63.632C292.725 63.8347 292.347 63.9733 291.92 64.048C291.504 64.1333 291.088 64.176 290.672 64.176C290.213 64.176 289.776 64.128 289.36 64.032C288.944 63.936 288.576 63.7813 288.256 63.568C287.936 63.344 287.68 63.056 287.488 62.704C287.296 62.3413 287.189 61.904 287.168 61.392H288.528ZM297.136 54.24H295.776V52.576H297.136V54.24ZM295.776 55.728H297.136V64H295.776V55.728ZM301.131 55.728H302.779V56.928H301.131V62.064C301.131 62.224 301.141 62.352 301.163 62.448C301.195 62.544 301.248 62.6187 301.323 62.672C301.397 62.7253 301.499 62.7627 301.627 62.784C301.765 62.7947 301.941 62.8 302.155 62.8H302.779V64H301.739C301.387 64 301.083 63.9787 300.827 63.936C300.581 63.8827 300.379 63.792 300.219 63.664C300.069 63.536 299.957 63.3547 299.883 63.12C299.808 62.8853 299.771 62.576 299.771 62.192V56.928H298.363V55.728H299.771V53.248H301.131V55.728ZM305.73 54.24H304.37V52.576H305.73V54.24ZM304.37 55.728H305.73V64H304.37V55.728ZM308.829 59.872C308.829 60.3733 308.893 60.8213 309.021 61.216C309.159 61.6 309.346 61.9253 309.581 62.192C309.815 62.448 310.087 62.6453 310.397 62.784C310.717 62.9227 311.053 62.992 311.405 62.992C311.757 62.992 312.087 62.9227 312.397 62.784C312.717 62.6453 312.994 62.448 313.229 62.192C313.463 61.9253 313.645 61.6 313.773 61.216C313.911 60.8213 313.981 60.3733 313.981 59.872C313.981 59.3707 313.911 58.928 313.773 58.544C313.645 58.1493 313.463 57.8187 313.229 57.552C312.994 57.2853 312.717 57.0827 312.397 56.944C312.087 56.8053 311.757 56.736 311.405 56.736C311.053 56.736 310.717 56.8053 310.397 56.944C310.087 57.0827 309.815 57.2853 309.581 57.552C309.346 57.8187 309.159 58.1493 309.021 58.544C308.893 58.928 308.829 59.3707 308.829 59.872ZM307.389 59.872C307.389 59.264 307.474 58.6987 307.645 58.176C307.815 57.6427 308.071 57.184 308.413 56.8C308.754 56.4053 309.175 56.096 309.677 55.872C310.178 55.648 310.754 55.536 311.405 55.536C312.066 55.536 312.642 55.648 313.133 55.872C313.634 56.096 314.055 56.4053 314.397 56.8C314.738 57.184 314.994 57.6427 315.165 58.176C315.335 58.6987 315.421 59.264 315.421 59.872C315.421 60.48 315.335 61.0453 315.165 61.568C314.994 62.0907 314.738 62.5493 314.397 62.944C314.055 63.328 313.634 63.632 313.133 63.856C312.642 64.0693 312.066 64.176 311.405 64.176C310.754 64.176 310.178 64.0693 309.677 63.856C309.175 63.632 308.754 63.328 308.413 62.944C308.071 62.5493 307.815 62.0907 307.645 61.568C307.474 61.0453 307.389 60.48 307.389 59.872ZM317.024 55.728H318.304V57.04H318.336C318.901 56.0373 319.797 55.536 321.024 55.536C321.568 55.536 322.021 55.6107 322.384 55.76C322.747 55.9093 323.04 56.1173 323.264 56.384C323.488 56.6507 323.643 56.9707 323.728 57.344C323.824 57.7067 323.872 58.112 323.872 58.56V64H322.512V58.4C322.512 57.888 322.363 57.4827 322.064 57.184C321.765 56.8853 321.355 56.736 320.832 56.736C320.416 56.736 320.053 56.8 319.744 56.928C319.445 57.056 319.195 57.2373 318.992 57.472C318.789 57.7067 318.635 57.984 318.528 58.304C318.432 58.6133 318.384 58.9547 318.384 59.328V64H317.024V55.728Z" fill="white"/>
                            <path d="M26.3305 290.488H29.3705C30.2345 290.488 30.8532 290.339 31.2265 290.04C31.6105 289.731 31.8025 289.272 31.8025 288.664C31.8025 288.259 31.7385 287.939 31.6105 287.704C31.4825 287.469 31.3065 287.288 31.0825 287.16C30.8585 287.032 30.5972 286.952 30.2985 286.92C30.0105 286.877 29.7012 286.856 29.3705 286.856H26.3305V290.488ZM24.8105 285.576H28.9545C29.1998 285.576 29.4612 285.581 29.7385 285.592C30.0265 285.592 30.3092 285.608 30.5865 285.64C30.8638 285.661 31.1198 285.699 31.3545 285.752C31.5998 285.805 31.8078 285.885 31.9785 285.992C32.3518 286.216 32.6665 286.525 32.9225 286.92C33.1892 287.315 33.3225 287.8 33.3225 288.376C33.3225 288.984 33.1732 289.512 32.8745 289.96C32.5865 290.397 32.1705 290.723 31.6265 290.936V290.968C32.3305 291.117 32.8692 291.437 33.2425 291.928C33.6158 292.419 33.8025 293.016 33.8025 293.72C33.8025 294.136 33.7278 294.541 33.5785 294.936C33.4292 295.331 33.2052 295.683 32.9065 295.992C32.6185 296.291 32.2558 296.536 31.8185 296.728C31.3918 296.909 30.8958 297 30.3305 297H24.8105V285.576ZM26.3305 295.72H30.1385C30.8105 295.72 31.3332 295.539 31.7065 295.176C32.0905 294.813 32.2825 294.312 32.2825 293.672C32.2825 293.299 32.2132 292.989 32.0745 292.744C31.9358 292.499 31.7492 292.307 31.5145 292.168C31.2905 292.019 31.0292 291.917 30.7305 291.864C30.4318 291.8 30.1225 291.768 29.8025 291.768H26.3305V295.72ZM42.3876 297H41.1076V295.688H41.0756C40.7876 296.2 40.4196 296.579 39.9716 296.824C39.5236 297.059 38.9956 297.176 38.3876 297.176C37.8436 297.176 37.3903 297.107 37.0276 296.968C36.665 296.819 36.3716 296.611 36.1476 296.344C35.9236 296.077 35.7636 295.763 35.6676 295.4C35.5823 295.027 35.5396 294.616 35.5396 294.168V288.728H36.8996V294.328C36.8996 294.84 37.049 295.245 37.3476 295.544C37.6463 295.843 38.057 295.992 38.5796 295.992C38.9956 295.992 39.353 295.928 39.6516 295.8C39.961 295.672 40.217 295.491 40.4196 295.256C40.6223 295.021 40.7716 294.749 40.8676 294.44C40.9743 294.12 41.0276 293.773 41.0276 293.4V288.728H42.3876V297ZM45.2623 294.392C45.2729 294.691 45.3423 294.947 45.4703 295.16C45.5983 295.363 45.7636 295.528 45.9663 295.656C46.1796 295.773 46.4143 295.859 46.6703 295.912C46.9369 295.965 47.2089 295.992 47.4863 295.992C47.6996 295.992 47.9236 295.976 48.1583 295.944C48.3929 295.912 48.6063 295.853 48.7983 295.768C49.0009 295.683 49.1663 295.56 49.2943 295.4C49.4223 295.229 49.4863 295.016 49.4863 294.76C49.4863 294.408 49.3529 294.141 49.0863 293.96C48.8196 293.779 48.4836 293.635 48.0783 293.528C47.6836 293.411 47.2516 293.309 46.7823 293.224C46.3129 293.128 45.8756 293 45.4703 292.84C45.0756 292.669 44.7449 292.435 44.4783 292.136C44.2116 291.837 44.0783 291.421 44.0783 290.888C44.0783 290.472 44.1689 290.115 44.3503 289.816C44.5423 289.517 44.7823 289.277 45.0703 289.096C45.3689 288.904 45.6996 288.765 46.0623 288.68C46.4356 288.584 46.8036 288.536 47.1663 288.536C47.6356 288.536 48.0676 288.579 48.4623 288.664C48.8569 288.739 49.2036 288.877 49.5023 289.08C49.8116 289.272 50.0569 289.539 50.2383 289.88C50.4196 290.211 50.5263 290.627 50.5583 291.128H49.1983C49.1769 290.861 49.1076 290.643 48.9903 290.472C48.8729 290.291 48.7236 290.147 48.5423 290.04C48.3609 289.933 48.1583 289.859 47.9343 289.816C47.7209 289.763 47.5023 289.736 47.2783 289.736C47.0756 289.736 46.8676 289.752 46.6543 289.784C46.4516 289.816 46.2649 289.875 46.0943 289.96C45.9236 290.035 45.7849 290.141 45.6783 290.28C45.5716 290.408 45.5182 290.579 45.5182 290.792C45.5182 291.027 45.5982 291.224 45.7582 291.384C45.9289 291.533 46.1423 291.661 46.3983 291.768C46.6543 291.864 46.9423 291.949 47.2623 292.024C47.5823 292.088 47.9023 292.157 48.2223 292.232C48.5636 292.307 48.8943 292.397 49.2143 292.504C49.5449 292.611 49.8329 292.755 50.0783 292.936C50.3343 293.107 50.5369 293.325 50.6863 293.592C50.8463 293.859 50.9263 294.189 50.9263 294.584C50.9263 295.085 50.8196 295.501 50.6063 295.832C50.4036 296.163 50.1316 296.429 49.7903 296.632C49.4596 296.835 49.0809 296.973 48.6543 297.048C48.2383 297.133 47.8223 297.176 47.4062 297.176C46.9476 297.176 46.5103 297.128 46.0943 297.032C45.6783 296.936 45.3103 296.781 44.9903 296.568C44.6703 296.344 44.4143 296.056 44.2223 295.704C44.0303 295.341 43.9236 294.904 43.9023 294.392H45.2623ZM53.8703 287.24H52.5103V285.576H53.8703V287.24ZM52.5103 288.728H53.8703V297H52.5103V288.728ZM55.9771 288.728H57.2571V290.04H57.2891C57.8545 289.037 58.7505 288.536 59.9771 288.536C60.5211 288.536 60.9745 288.611 61.3371 288.76C61.6998 288.909 61.9931 289.117 62.2171 289.384C62.4411 289.651 62.5958 289.971 62.6811 290.344C62.7771 290.707 62.8251 291.112 62.8251 291.56V297H61.4651V291.4C61.4651 290.888 61.3158 290.483 61.0171 290.184C60.7185 289.885 60.3078 289.736 59.7851 289.736C59.3691 289.736 59.0065 289.8 58.6971 289.928C58.3985 290.056 58.1478 290.237 57.9451 290.472C57.7425 290.707 57.5878 290.984 57.4811 291.304C57.3851 291.613 57.3371 291.955 57.3371 292.328V297H55.9771V288.728ZM70.6118 292.072C70.5904 291.752 70.5158 291.448 70.3878 291.16C70.2704 290.872 70.1051 290.627 69.8918 290.424C69.6891 290.211 69.4438 290.045 69.1558 289.928C68.8784 289.8 68.5691 289.736 68.2278 289.736C67.8758 289.736 67.5558 289.8 67.2678 289.928C66.9904 290.045 66.7504 290.211 66.5478 290.424C66.3451 290.637 66.1851 290.888 66.0678 291.176C65.9504 291.453 65.8811 291.752 65.8598 292.072H70.6118ZM71.9237 294.376C71.7424 295.304 71.3424 296.003 70.7238 296.472C70.1051 296.941 69.3264 297.176 68.3878 297.176C67.7264 297.176 67.1504 297.069 66.6598 296.856C66.1798 296.643 65.7744 296.344 65.4438 295.96C65.1131 295.576 64.8624 295.117 64.6918 294.584C64.5318 294.051 64.4411 293.469 64.4198 292.84C64.4198 292.211 64.5158 291.635 64.7078 291.112C64.8998 290.589 65.1664 290.136 65.5078 289.752C65.8598 289.368 66.2704 289.069 66.7398 288.856C67.2198 288.643 67.7424 288.536 68.3078 288.536C69.0438 288.536 69.6518 288.691 70.1318 289C70.6224 289.299 71.0118 289.683 71.2998 290.152C71.5984 290.621 71.8011 291.133 71.9078 291.688C72.0251 292.243 72.0731 292.771 72.0518 293.272H65.8598C65.8491 293.635 65.8918 293.981 65.9878 294.312C66.0838 294.632 66.2384 294.92 66.4518 295.176C66.6651 295.421 66.9371 295.619 67.2678 295.768C67.5984 295.917 67.9878 295.992 68.4358 295.992C69.0118 295.992 69.4811 295.859 69.8438 295.592C70.2171 295.325 70.4624 294.92 70.5798 294.376H71.9237ZM74.2935 294.392C74.3042 294.691 74.3735 294.947 74.5015 295.16C74.6295 295.363 74.7948 295.528 74.9975 295.656C75.2108 295.773 75.4455 295.859 75.7015 295.912C75.9682 295.965 76.2402 295.992 76.5175 295.992C76.7308 295.992 76.9548 295.976 77.1895 295.944C77.4242 295.912 77.6375 295.853 77.8295 295.768C78.0322 295.683 78.1975 295.56 78.3255 295.4C78.4535 295.229 78.5175 295.016 78.5175 294.76C78.5175 294.408 78.3842 294.141 78.1175 293.96C77.8508 293.779 77.5148 293.635 77.1095 293.528C76.7148 293.411 76.2828 293.309 75.8135 293.224C75.3442 293.128 74.9068 293 74.5015 292.84C74.1068 292.669 73.7762 292.435 73.5095 292.136C73.2428 291.837 73.1095 291.421 73.1095 290.888C73.1095 290.472 73.2002 290.115 73.3815 289.816C73.5735 289.517 73.8135 289.277 74.1015 289.096C74.4002 288.904 74.7308 288.765 75.0935 288.68C75.4668 288.584 75.8348 288.536 76.1975 288.536C76.6668 288.536 77.0988 288.579 77.4935 288.664C77.8882 288.739 78.2348 288.877 78.5335 289.08C78.8428 289.272 79.0882 289.539 79.2695 289.88C79.4508 290.211 79.5575 290.627 79.5895 291.128H78.2295C78.2082 290.861 78.1388 290.643 78.0215 290.472C77.9042 290.291 77.7548 290.147 77.5735 290.04C77.3922 289.933 77.1895 289.859 76.9655 289.816C76.7522 289.763 76.5335 289.736 76.3095 289.736C76.1068 289.736 75.8988 289.752 75.6855 289.784C75.4828 289.816 75.2962 289.875 75.1255 289.96C74.9548 290.035 74.8162 290.141 74.7095 290.28C74.6028 290.408 74.5495 290.579 74.5495 290.792C74.5495 291.027 74.6295 291.224 74.7895 291.384C74.9602 291.533 75.1735 291.661 75.4295 291.768C75.6855 291.864 75.9735 291.949 76.2935 292.024C76.6135 292.088 76.9335 292.157 77.2535 292.232C77.5948 292.307 77.9255 292.397 78.2455 292.504C78.5762 292.611 78.8642 292.755 79.1095 292.936C79.3655 293.107 79.5682 293.325 79.7175 293.592C79.8775 293.859 79.9575 294.189 79.9575 294.584C79.9575 295.085 79.8508 295.501 79.6375 295.832C79.4348 296.163 79.1628 296.429 78.8215 296.632C78.4908 296.835 78.1122 296.973 77.6855 297.048C77.2695 297.133 76.8535 297.176 76.4375 297.176C75.9788 297.176 75.5415 297.128 75.1255 297.032C74.7095 296.936 74.3415 296.781 74.0215 296.568C73.7015 296.344 73.4455 296.056 73.2535 295.704C73.0615 295.341 72.9548 294.904 72.9335 294.392H74.2935ZM82.2935 294.392C82.3042 294.691 82.3735 294.947 82.5015 295.16C82.6295 295.363 82.7948 295.528 82.9975 295.656C83.2108 295.773 83.4455 295.859 83.7015 295.912C83.9682 295.965 84.2402 295.992 84.5175 295.992C84.7308 295.992 84.9548 295.976 85.1895 295.944C85.4242 295.912 85.6375 295.853 85.8295 295.768C86.0322 295.683 86.1975 295.56 86.3255 295.4C86.4535 295.229 86.5175 295.016 86.5175 294.76C86.5175 294.408 86.3842 294.141 86.1175 293.96C85.8508 293.779 85.5148 293.635 85.1095 293.528C84.7148 293.411 84.2828 293.309 83.8135 293.224C83.3442 293.128 82.9068 293 82.5015 292.84C82.1068 292.669 81.7762 292.435 81.5095 292.136C81.2428 291.837 81.1095 291.421 81.1095 290.888C81.1095 290.472 81.2002 290.115 81.3815 289.816C81.5735 289.517 81.8135 289.277 82.1015 289.096C82.4002 288.904 82.7308 288.765 83.0935 288.68C83.4668 288.584 83.8348 288.536 84.1975 288.536C84.6668 288.536 85.0988 288.579 85.4935 288.664C85.8882 288.739 86.2348 288.877 86.5335 289.08C86.8428 289.272 87.0882 289.539 87.2695 289.88C87.4508 290.211 87.5575 290.627 87.5895 291.128H86.2295C86.2082 290.861 86.1388 290.643 86.0215 290.472C85.9042 290.291 85.7548 290.147 85.5735 290.04C85.3922 289.933 85.1895 289.859 84.9655 289.816C84.7522 289.763 84.5335 289.736 84.3095 289.736C84.1068 289.736 83.8988 289.752 83.6855 289.784C83.4828 289.816 83.2962 289.875 83.1255 289.96C82.9548 290.035 82.8162 290.141 82.7095 290.28C82.6028 290.408 82.5495 290.579 82.5495 290.792C82.5495 291.027 82.6295 291.224 82.7895 291.384C82.9602 291.533 83.1735 291.661 83.4295 291.768C83.6855 291.864 83.9735 291.949 84.2935 292.024C84.6135 292.088 84.9335 292.157 85.2535 292.232C85.5948 292.307 85.9255 292.397 86.2455 292.504C86.5762 292.611 86.8642 292.755 87.1095 292.936C87.3655 293.107 87.5682 293.325 87.7175 293.592C87.8775 293.859 87.9575 294.189 87.9575 294.584C87.9575 295.085 87.8508 295.501 87.6375 295.832C87.4348 296.163 87.1628 296.429 86.8215 296.632C86.4908 296.835 86.1122 296.973 85.6855 297.048C85.2695 297.133 84.8535 297.176 84.4375 297.176C83.9788 297.176 83.5415 297.128 83.1255 297.032C82.7095 296.936 82.3415 296.781 82.0215 296.568C81.7015 296.344 81.4455 296.056 81.2535 295.704C81.0615 295.341 80.9548 294.904 80.9335 294.392H82.2935Z" fill="white"/>
                            <path d="M514.327 296.016C514.156 295.205 513.778 294.597 513.191 294.192C512.615 293.787 511.927 293.584 511.127 293.584C510.444 293.584 509.858 293.712 509.367 293.968C508.887 294.224 508.487 294.571 508.167 295.008C507.858 295.435 507.628 295.925 507.479 296.48C507.33 297.035 507.255 297.611 507.255 298.208C507.255 298.859 507.33 299.477 507.479 300.064C507.628 300.64 507.858 301.147 508.167 301.584C508.487 302.011 508.892 302.352 509.383 302.608C509.874 302.864 510.46 302.992 511.143 302.992C511.644 302.992 512.087 302.912 512.471 302.752C512.866 302.581 513.202 302.352 513.479 302.064C513.767 301.765 513.991 301.413 514.151 301.008C514.311 300.603 514.407 300.165 514.439 299.696H515.959C515.81 301.136 515.314 302.256 514.471 303.056C513.628 303.856 512.476 304.256 511.015 304.256C510.13 304.256 509.356 304.107 508.695 303.808C508.034 303.499 507.484 303.077 507.047 302.544C506.61 302.011 506.279 301.381 506.055 300.656C505.842 299.931 505.735 299.152 505.735 298.32C505.735 297.488 505.852 296.709 506.087 295.984C506.322 295.248 506.663 294.608 507.111 294.064C507.57 293.52 508.135 293.093 508.807 292.784C509.49 292.464 510.268 292.304 511.143 292.304C511.74 292.304 512.306 292.384 512.839 292.544C513.372 292.704 513.847 292.939 514.263 293.248C514.679 293.557 515.026 293.947 515.303 294.416C515.58 294.875 515.762 295.408 515.847 296.016H514.327ZM517.698 292.576H519.058V304H517.698V292.576ZM522.605 294.24H521.245V292.576H522.605V294.24ZM521.245 295.728H522.605V304H521.245V295.728ZM530.456 299.072C530.434 298.752 530.36 298.448 530.232 298.16C530.114 297.872 529.949 297.627 529.736 297.424C529.533 297.211 529.288 297.045 529 296.928C528.722 296.8 528.413 296.736 528.072 296.736C527.72 296.736 527.4 296.8 527.112 296.928C526.834 297.045 526.594 297.211 526.392 297.424C526.189 297.637 526.029 297.888 525.912 298.176C525.794 298.453 525.725 298.752 525.704 299.072H530.456ZM531.767 301.376C531.586 302.304 531.186 303.003 530.568 303.472C529.949 303.941 529.17 304.176 528.232 304.176C527.57 304.176 526.994 304.069 526.504 303.856C526.024 303.643 525.618 303.344 525.288 302.96C524.957 302.576 524.706 302.117 524.536 301.584C524.376 301.051 524.285 300.469 524.264 299.84C524.264 299.211 524.36 298.635 524.552 298.112C524.744 297.589 525.01 297.136 525.352 296.752C525.704 296.368 526.114 296.069 526.584 295.856C527.064 295.643 527.586 295.536 528.152 295.536C528.888 295.536 529.496 295.691 529.976 296C530.466 296.299 530.856 296.683 531.144 297.152C531.442 297.621 531.645 298.133 531.752 298.688C531.869 299.243 531.917 299.771 531.896 300.272H525.704C525.693 300.635 525.736 300.981 525.832 301.312C525.928 301.632 526.082 301.92 526.296 302.176C526.509 302.421 526.781 302.619 527.112 302.768C527.442 302.917 527.832 302.992 528.28 302.992C528.856 302.992 529.325 302.859 529.688 302.592C530.061 302.325 530.306 301.92 530.424 301.376H531.767ZM533.305 295.728H534.585V297.04H534.617C535.183 296.037 536.079 295.536 537.305 295.536C537.849 295.536 538.303 295.611 538.665 295.76C539.028 295.909 539.321 296.117 539.545 296.384C539.769 296.651 539.924 296.971 540.009 297.344C540.105 297.707 540.153 298.112 540.153 298.56V304H538.793V298.4C538.793 297.888 538.644 297.483 538.345 297.184C538.047 296.885 537.636 296.736 537.113 296.736C536.697 296.736 536.335 296.8 536.025 296.928C535.727 297.056 535.476 297.237 535.273 297.472C535.071 297.707 534.916 297.984 534.809 298.304C534.713 298.613 534.665 298.955 534.665 299.328V304H533.305V295.728ZM544.084 295.728H545.732V296.928H544.084V302.064C544.084 302.224 544.095 302.352 544.116 302.448C544.148 302.544 544.201 302.619 544.276 302.672C544.351 302.725 544.452 302.763 544.58 302.784C544.719 302.795 544.895 302.8 545.108 302.8H545.732V304H544.692C544.34 304 544.036 303.979 543.78 303.936C543.535 303.883 543.332 303.792 543.172 303.664C543.023 303.536 542.911 303.355 542.836 303.12C542.761 302.885 542.724 302.576 542.724 302.192V296.928H541.316V295.728H542.724V293.248H544.084V295.728ZM552.987 299.072C552.965 298.752 552.891 298.448 552.763 298.16C552.645 297.872 552.48 297.627 552.267 297.424C552.064 297.211 551.819 297.045 551.531 296.928C551.253 296.8 550.944 296.736 550.603 296.736C550.251 296.736 549.931 296.8 549.643 296.928C549.365 297.045 549.125 297.211 548.923 297.424C548.72 297.637 548.56 297.888 548.443 298.176C548.325 298.453 548.256 298.752 548.235 299.072H552.987ZM554.299 301.376C554.117 302.304 553.717 303.003 553.099 303.472C552.48 303.941 551.701 304.176 550.763 304.176C550.101 304.176 549.525 304.069 549.035 303.856C548.555 303.643 548.149 303.344 547.819 302.96C547.488 302.576 547.237 302.117 547.067 301.584C546.907 301.051 546.816 300.469 546.795 299.84C546.795 299.211 546.891 298.635 547.083 298.112C547.275 297.589 547.541 297.136 547.883 296.752C548.235 296.368 548.645 296.069 549.115 295.856C549.595 295.643 550.117 295.536 550.683 295.536C551.419 295.536 552.027 295.691 552.507 296C552.997 296.299 553.387 296.683 553.675 297.152C553.973 297.621 554.176 298.133 554.283 298.688C554.4 299.243 554.448 299.771 554.427 300.272H548.235C548.224 300.635 548.267 300.981 548.363 301.312C548.459 301.632 548.613 301.92 548.827 302.176C549.04 302.421 549.312 302.619 549.643 302.768C549.973 302.917 550.363 302.992 550.811 302.992C551.387 302.992 551.856 302.859 552.219 302.592C552.592 302.325 552.837 301.92 552.955 301.376H554.299ZM555.917 292.576H557.277V304H555.917V292.576ZM565.127 299.072C565.106 298.752 565.031 298.448 564.903 298.16C564.786 297.872 564.621 297.627 564.407 297.424C564.205 297.211 563.959 297.045 563.671 296.928C563.394 296.8 563.085 296.736 562.743 296.736C562.391 296.736 562.071 296.8 561.783 296.928C561.506 297.045 561.266 297.211 561.063 297.424C560.861 297.637 560.701 297.888 560.583 298.176C560.466 298.453 560.397 298.752 560.375 299.072H565.127ZM566.439 301.376C566.258 302.304 565.858 303.003 565.239 303.472C564.621 303.941 563.842 304.176 562.903 304.176C562.242 304.176 561.666 304.069 561.175 303.856C560.695 303.643 560.29 303.344 559.959 302.96C559.629 302.576 559.378 302.117 559.207 301.584C559.047 301.051 558.957 300.469 558.935 299.84C558.935 299.211 559.031 298.635 559.223 298.112C559.415 297.589 559.682 297.136 560.023 296.752C560.375 296.368 560.786 296.069 561.255 295.856C561.735 295.643 562.258 295.536 562.823 295.536C563.559 295.536 564.167 295.691 564.647 296C565.138 296.299 565.527 296.683 565.815 297.152C566.114 297.621 566.317 298.133 566.423 298.688C566.541 299.243 566.589 299.771 566.567 300.272H560.375C560.365 300.635 560.407 300.981 560.503 301.312C560.599 301.632 560.754 301.92 560.967 302.176C561.181 302.421 561.453 302.619 561.783 302.768C562.114 302.917 562.503 302.992 562.951 302.992C563.527 302.992 563.997 302.859 564.359 302.592C564.733 302.325 564.978 301.92 565.095 301.376H566.439Z" fill="white"/>
                            <path d="M92.3299 481H90.6019L86.5859 469.576H88.2179L91.4819 479.48H91.5139L94.8099 469.576H96.3939L92.3299 481ZM97.5082 476.872C97.5082 477.373 97.5722 477.821 97.7002 478.216C97.8389 478.6 98.0255 478.925 98.2602 479.192C98.4949 479.448 98.7669 479.645 99.0762 479.784C99.3962 479.923 99.7322 479.992 100.084 479.992C100.436 479.992 100.767 479.923 101.076 479.784C101.396 479.645 101.674 479.448 101.908 479.192C102.143 478.925 102.324 478.6 102.452 478.216C102.591 477.821 102.66 477.373 102.66 476.872C102.66 476.371 102.591 475.928 102.452 475.544C102.324 475.149 102.143 474.819 101.908 474.552C101.674 474.285 101.396 474.083 101.076 473.944C100.767 473.805 100.436 473.736 100.084 473.736C99.7322 473.736 99.3962 473.805 99.0762 473.944C98.7669 474.083 98.4949 474.285 98.2602 474.552C98.0255 474.819 97.8389 475.149 97.7002 475.544C97.5722 475.928 97.5082 476.371 97.5082 476.872ZM96.0682 476.872C96.0682 476.264 96.1535 475.699 96.3242 475.176C96.4949 474.643 96.7509 474.184 97.0922 473.8C97.4335 473.405 97.8549 473.096 98.3562 472.872C98.8575 472.648 99.4335 472.536 100.084 472.536C100.746 472.536 101.322 472.648 101.812 472.872C102.314 473.096 102.735 473.405 103.076 473.8C103.418 474.184 103.674 474.643 103.844 475.176C104.015 475.699 104.1 476.264 104.1 476.872C104.1 477.48 104.015 478.045 103.844 478.568C103.674 479.091 103.418 479.549 103.076 479.944C102.735 480.328 102.314 480.632 101.812 480.856C101.322 481.069 100.746 481.176 100.084 481.176C99.4335 481.176 98.8575 481.069 98.3562 480.856C97.8549 480.632 97.4335 480.328 97.0922 479.944C96.7509 479.549 96.4949 479.091 96.3242 478.568C96.1535 478.045 96.0682 477.48 96.0682 476.872ZM107.144 471.24H105.784V469.576H107.144V471.24ZM105.784 472.728H107.144V481H105.784V472.728ZM114.867 475.384C114.76 474.861 114.536 474.456 114.195 474.168C113.853 473.88 113.395 473.736 112.819 473.736C112.328 473.736 111.917 473.827 111.587 474.008C111.256 474.189 110.989 474.429 110.787 474.728C110.595 475.027 110.456 475.373 110.371 475.768C110.285 476.152 110.243 476.552 110.243 476.968C110.243 477.352 110.285 477.725 110.371 478.088C110.467 478.451 110.611 478.776 110.803 479.064C110.995 479.341 111.245 479.565 111.555 479.736C111.864 479.907 112.232 479.992 112.659 479.992C113.331 479.992 113.853 479.816 114.227 479.464C114.611 479.112 114.845 478.616 114.931 477.976H116.323C116.173 479 115.789 479.789 115.171 480.344C114.563 480.899 113.731 481.176 112.675 481.176C112.045 481.176 111.485 481.075 110.995 480.872C110.515 480.669 110.109 480.381 109.779 480.008C109.459 479.635 109.213 479.192 109.043 478.68C108.883 478.157 108.803 477.587 108.803 476.968C108.803 476.349 108.883 475.773 109.043 475.24C109.203 474.696 109.443 474.227 109.763 473.832C110.093 473.427 110.504 473.112 110.995 472.888C111.485 472.653 112.056 472.536 112.707 472.536C113.176 472.536 113.613 472.595 114.019 472.712C114.435 472.819 114.797 472.989 115.107 473.224C115.427 473.459 115.688 473.757 115.891 474.12C116.093 474.472 116.221 474.893 116.275 475.384H114.867ZM123.588 476.072C123.567 475.752 123.492 475.448 123.364 475.16C123.247 474.872 123.082 474.627 122.868 474.424C122.666 474.211 122.42 474.045 122.132 473.928C121.855 473.8 121.546 473.736 121.204 473.736C120.852 473.736 120.532 473.8 120.244 473.928C119.967 474.045 119.727 474.211 119.524 474.424C119.322 474.637 119.162 474.888 119.044 475.176C118.927 475.453 118.858 475.752 118.836 476.072H123.588ZM124.9 478.376C124.719 479.304 124.319 480.003 123.7 480.472C123.082 480.941 122.303 481.176 121.364 481.176C120.703 481.176 120.127 481.069 119.636 480.856C119.156 480.643 118.751 480.344 118.42 479.96C118.09 479.576 117.839 479.117 117.668 478.584C117.508 478.051 117.418 477.469 117.396 476.84C117.396 476.211 117.492 475.635 117.684 475.112C117.876 474.589 118.143 474.136 118.484 473.752C118.836 473.368 119.247 473.069 119.716 472.856C120.196 472.643 120.719 472.536 121.284 472.536C122.02 472.536 122.628 472.691 123.108 473C123.599 473.299 123.988 473.683 124.276 474.152C124.575 474.621 124.778 475.133 124.884 475.688C125.002 476.243 125.05 476.771 125.028 477.272H118.836C118.826 477.635 118.868 477.981 118.964 478.312C119.06 478.632 119.215 478.92 119.428 479.176C119.642 479.421 119.914 479.619 120.244 479.768C120.575 479.917 120.964 479.992 121.412 479.992C121.988 479.992 122.458 479.859 122.82 479.592C123.194 479.325 123.439 478.92 123.556 478.376H124.9Z" fill="white"/>
                            <path d="M270.199 532.856H266.391V531.576H275.527V532.856H271.719V543H270.199V532.856ZM276.571 531.576H277.931V535.944H277.963C278.07 535.688 278.219 535.475 278.411 535.304C278.603 535.123 278.816 534.979 279.051 534.872C279.296 534.755 279.547 534.669 279.803 534.616C280.07 534.563 280.326 534.536 280.571 534.536C281.115 534.536 281.568 534.611 281.931 534.76C282.294 534.909 282.587 535.117 282.811 535.384C283.035 535.651 283.19 535.971 283.275 536.344C283.371 536.707 283.419 537.112 283.419 537.56V543H282.059V537.4C282.059 536.888 281.91 536.483 281.611 536.184C281.312 535.885 280.902 535.736 280.379 535.736C279.963 535.736 279.6 535.8 279.291 535.928C278.992 536.056 278.742 536.237 278.539 536.472C278.336 536.707 278.182 536.984 278.075 537.304C277.979 537.613 277.931 537.955 277.931 538.328V543H276.571V531.576ZM286.454 538.872C286.454 539.373 286.518 539.821 286.646 540.216C286.784 540.6 286.971 540.925 287.206 541.192C287.44 541.448 287.712 541.645 288.022 541.784C288.342 541.923 288.678 541.992 289.03 541.992C289.382 541.992 289.712 541.923 290.022 541.784C290.342 541.645 290.619 541.448 290.854 541.192C291.088 540.925 291.27 540.6 291.398 540.216C291.536 539.821 291.606 539.373 291.606 538.872C291.606 538.371 291.536 537.928 291.398 537.544C291.27 537.149 291.088 536.819 290.854 536.552C290.619 536.285 290.342 536.083 290.022 535.944C289.712 535.805 289.382 535.736 289.03 535.736C288.678 535.736 288.342 535.805 288.022 535.944C287.712 536.083 287.44 536.285 287.206 536.552C286.971 536.819 286.784 537.149 286.646 537.544C286.518 537.928 286.454 538.371 286.454 538.872ZM285.014 538.872C285.014 538.264 285.099 537.699 285.27 537.176C285.44 536.643 285.696 536.184 286.038 535.8C286.379 535.405 286.8 535.096 287.302 534.872C287.803 534.648 288.379 534.536 289.03 534.536C289.691 534.536 290.267 534.648 290.758 534.872C291.259 535.096 291.68 535.405 292.022 535.8C292.363 536.184 292.619 536.643 292.79 537.176C292.96 537.699 293.046 538.264 293.046 538.872C293.046 539.48 292.96 540.045 292.79 540.568C292.619 541.091 292.363 541.549 292.022 541.944C291.68 542.328 291.259 542.632 290.758 542.856C290.267 543.069 289.691 543.176 289.03 543.176C288.379 543.176 287.803 543.069 287.302 542.856C286.8 542.632 286.379 542.328 286.038 541.944C285.696 541.549 285.44 541.091 285.27 540.568C285.099 540.045 285.014 539.48 285.014 538.872ZM301.497 543H300.217V541.688H300.185C299.897 542.2 299.529 542.579 299.081 542.824C298.633 543.059 298.105 543.176 297.497 543.176C296.953 543.176 296.5 543.107 296.137 542.968C295.774 542.819 295.481 542.611 295.257 542.344C295.033 542.077 294.873 541.763 294.777 541.4C294.692 541.027 294.649 540.616 294.649 540.168V534.728H296.009V540.328C296.009 540.84 296.158 541.245 296.457 541.544C296.756 541.843 297.166 541.992 297.689 541.992C298.105 541.992 298.462 541.928 298.761 541.8C299.07 541.672 299.326 541.491 299.529 541.256C299.732 541.021 299.881 540.749 299.977 540.44C300.084 540.12 300.137 539.773 300.137 539.4V534.728H301.497V543ZM310.676 542.296C310.676 543.651 310.366 544.664 309.748 545.336C309.129 546.008 308.158 546.344 306.836 546.344C306.452 546.344 306.057 546.301 305.652 546.216C305.257 546.131 304.894 545.992 304.564 545.8C304.244 545.608 303.977 545.357 303.764 545.048C303.55 544.739 303.433 544.36 303.412 543.912H304.772C304.782 544.157 304.857 544.365 304.996 544.536C305.145 544.707 305.321 544.845 305.524 544.952C305.737 545.059 305.966 545.133 306.212 545.176C306.457 545.229 306.692 545.256 306.916 545.256C307.364 545.256 307.742 545.176 308.052 545.016C308.361 544.867 308.617 544.653 308.82 544.376C309.022 544.109 309.166 543.784 309.252 543.4C309.348 543.016 309.396 542.595 309.396 542.136V541.592H309.364C309.129 542.104 308.772 542.483 308.292 542.728C307.822 542.963 307.321 543.08 306.788 543.08C306.169 543.08 305.63 542.968 305.172 542.744C304.713 542.52 304.329 542.221 304.02 541.848C303.71 541.464 303.476 541.021 303.316 540.52C303.166 540.008 303.092 539.469 303.092 538.904C303.092 538.413 303.156 537.912 303.284 537.4C303.412 536.877 303.625 536.408 303.924 535.992C304.222 535.565 304.617 535.219 305.108 534.952C305.598 534.675 306.201 534.536 306.916 534.536C307.438 534.536 307.918 534.653 308.356 534.888C308.793 535.112 309.134 535.453 309.38 535.912H309.396V534.728H310.676V542.296ZM306.868 541.896C307.316 541.896 307.694 541.805 308.004 541.624C308.324 541.432 308.58 541.187 308.772 540.888C308.964 540.579 309.102 540.232 309.188 539.848C309.284 539.464 309.332 539.08 309.332 538.696C309.332 538.333 309.289 537.976 309.204 537.624C309.118 537.272 308.98 536.957 308.788 536.68C308.606 536.392 308.366 536.163 308.068 535.992C307.769 535.821 307.406 535.736 306.98 535.736C306.542 535.736 306.169 535.821 305.86 535.992C305.55 536.152 305.294 536.371 305.092 536.648C304.9 536.925 304.756 537.245 304.66 537.608C304.574 537.971 304.532 538.349 304.532 538.744C304.532 539.117 304.569 539.491 304.644 539.864C304.718 540.237 304.846 540.579 305.028 540.888C305.209 541.187 305.449 541.432 305.748 541.624C306.046 541.805 306.42 541.896 306.868 541.896ZM312.727 531.576H314.087V535.944H314.119C314.226 535.688 314.375 535.475 314.567 535.304C314.759 535.123 314.972 534.979 315.207 534.872C315.452 534.755 315.703 534.669 315.959 534.616C316.226 534.563 316.482 534.536 316.727 534.536C317.271 534.536 317.724 534.611 318.087 534.76C318.45 534.909 318.743 535.117 318.967 535.384C319.191 535.651 319.346 535.971 319.431 536.344C319.527 536.707 319.575 537.112 319.575 537.56V543H318.215V537.4C318.215 536.888 318.066 536.483 317.767 536.184C317.468 535.885 317.058 535.736 316.535 535.736C316.119 535.736 315.756 535.8 315.447 535.928C315.148 536.056 314.898 536.237 314.695 536.472C314.492 536.707 314.338 536.984 314.231 537.304C314.135 537.613 314.087 537.955 314.087 538.328V543H312.727V531.576ZM323.506 534.728H325.154V535.928H323.506V541.064C323.506 541.224 323.516 541.352 323.538 541.448C323.57 541.544 323.623 541.619 323.698 541.672C323.772 541.725 323.874 541.763 324.002 541.784C324.14 541.795 324.316 541.8 324.53 541.8H325.154V543H324.114C323.762 543 323.458 542.979 323.202 542.936C322.956 542.883 322.754 542.792 322.594 542.664C322.444 542.536 322.332 542.355 322.258 542.12C322.183 541.885 322.146 541.576 322.146 541.192V535.928H320.738V534.728H322.146V532.248H323.506V534.728Z" fill="white"/>
                            <path d="M460.608 472.016C460.437 471.205 460.059 470.597 459.472 470.192C458.896 469.787 458.208 469.584 457.408 469.584C456.725 469.584 456.139 469.712 455.648 469.968C455.168 470.224 454.768 470.571 454.448 471.008C454.139 471.435 453.909 471.925 453.76 472.48C453.611 473.035 453.536 473.611 453.536 474.208C453.536 474.859 453.611 475.477 453.76 476.064C453.909 476.64 454.139 477.147 454.448 477.584C454.768 478.011 455.173 478.352 455.664 478.608C456.155 478.864 456.741 478.992 457.424 478.992C457.925 478.992 458.368 478.912 458.752 478.752C459.147 478.581 459.483 478.352 459.76 478.064C460.048 477.765 460.272 477.413 460.432 477.008C460.592 476.603 460.688 476.165 460.72 475.696H462.24C462.091 477.136 461.595 478.256 460.752 479.056C459.909 479.856 458.757 480.256 457.296 480.256C456.411 480.256 455.637 480.107 454.976 479.808C454.315 479.499 453.765 479.077 453.328 478.544C452.891 478.011 452.56 477.381 452.336 476.656C452.123 475.931 452.016 475.152 452.016 474.32C452.016 473.488 452.133 472.709 452.368 471.984C452.603 471.248 452.944 470.608 453.392 470.064C453.851 469.52 454.416 469.093 455.088 468.784C455.771 468.464 456.549 468.304 457.424 468.304C458.021 468.304 458.587 468.384 459.12 468.544C459.653 468.704 460.128 468.939 460.544 469.248C460.96 469.557 461.307 469.947 461.584 470.416C461.861 470.875 462.043 471.408 462.128 472.016H460.608ZM464.891 475.872C464.891 476.373 464.955 476.821 465.083 477.216C465.222 477.6 465.408 477.925 465.643 478.192C465.878 478.448 466.15 478.645 466.459 478.784C466.779 478.923 467.115 478.992 467.467 478.992C467.819 478.992 468.15 478.923 468.459 478.784C468.779 478.645 469.056 478.448 469.291 478.192C469.526 477.925 469.707 477.6 469.835 477.216C469.974 476.821 470.043 476.373 470.043 475.872C470.043 475.371 469.974 474.928 469.835 474.544C469.707 474.149 469.526 473.819 469.291 473.552C469.056 473.285 468.779 473.083 468.459 472.944C468.15 472.805 467.819 472.736 467.467 472.736C467.115 472.736 466.779 472.805 466.459 472.944C466.15 473.083 465.878 473.285 465.643 473.552C465.408 473.819 465.222 474.149 465.083 474.544C464.955 474.928 464.891 475.371 464.891 475.872ZM463.451 475.872C463.451 475.264 463.536 474.699 463.707 474.176C463.878 473.643 464.134 473.184 464.475 472.8C464.816 472.405 465.238 472.096 465.739 471.872C466.24 471.648 466.816 471.536 467.467 471.536C468.128 471.536 468.704 471.648 469.195 471.872C469.696 472.096 470.118 472.405 470.459 472.8C470.8 473.184 471.056 473.643 471.227 474.176C471.398 474.699 471.483 475.264 471.483 475.872C471.483 476.48 471.398 477.045 471.227 477.568C471.056 478.091 470.8 478.549 470.459 478.944C470.118 479.328 469.696 479.632 469.195 479.856C468.704 480.069 468.128 480.176 467.467 480.176C466.816 480.176 466.24 480.069 465.739 479.856C465.238 479.632 464.816 479.328 464.475 478.944C464.134 478.549 463.878 478.091 463.707 477.568C463.536 477.045 463.451 476.48 463.451 475.872ZM473.087 471.728H474.367V472.944H474.399C475.017 472.005 475.908 471.536 477.071 471.536C477.583 471.536 478.047 471.643 478.463 471.856C478.879 472.069 479.172 472.432 479.343 472.944C479.62 472.496 479.983 472.149 480.431 471.904C480.889 471.659 481.391 471.536 481.935 471.536C482.351 471.536 482.724 471.584 483.055 471.68C483.396 471.765 483.684 471.904 483.919 472.096C484.164 472.288 484.351 472.539 484.479 472.848C484.617 473.147 484.687 473.509 484.687 473.936V480H483.327V474.576C483.327 474.32 483.305 474.08 483.263 473.856C483.22 473.632 483.14 473.44 483.023 473.28C482.905 473.109 482.74 472.976 482.527 472.88C482.324 472.784 482.057 472.736 481.727 472.736C481.055 472.736 480.527 472.928 480.142 473.312C479.759 473.696 479.567 474.208 479.567 474.848V480H478.207V474.576C478.207 474.309 478.18 474.064 478.127 473.84C478.084 473.616 478.004 473.424 477.887 473.264C477.769 473.093 477.609 472.965 477.407 472.88C477.215 472.784 476.964 472.736 476.655 472.736C476.26 472.736 475.919 472.816 475.631 472.976C475.353 473.136 475.124 473.328 474.943 473.552C474.772 473.776 474.644 474.011 474.559 474.256C474.484 474.491 474.447 474.688 474.447 474.848V480H473.087V471.728ZM486.775 471.728H488.135V472.848H488.167C488.391 472.389 488.743 472.059 489.223 471.856C489.703 471.643 490.231 471.536 490.807 471.536C491.447 471.536 492.002 471.653 492.471 471.888C492.951 472.123 493.346 472.443 493.655 472.848C493.975 473.243 494.215 473.701 494.375 474.224C494.535 474.747 494.615 475.301 494.615 475.888C494.615 476.475 494.535 477.029 494.375 477.552C494.226 478.075 493.991 478.533 493.671 478.928C493.362 479.312 492.967 479.616 492.487 479.84C492.018 480.064 491.468 480.176 490.839 480.176C490.636 480.176 490.407 480.155 490.151 480.112C489.906 480.069 489.66 480 489.415 479.904C489.17 479.808 488.935 479.68 488.711 479.52C488.498 479.349 488.316 479.141 488.167 478.896H488.135V483.152H486.775V471.728ZM493.175 475.792C493.175 475.408 493.122 475.035 493.015 474.672C492.919 474.299 492.764 473.968 492.551 473.68C492.348 473.392 492.082 473.163 491.751 472.992C491.431 472.821 491.052 472.736 490.615 472.736C490.156 472.736 489.767 472.827 489.447 473.008C489.127 473.189 488.866 473.429 488.663 473.728C488.46 474.016 488.311 474.347 488.215 474.72C488.13 475.093 488.087 475.472 488.087 475.856C488.087 476.261 488.135 476.656 488.231 477.04C488.327 477.413 488.476 477.744 488.679 478.032C488.892 478.32 489.164 478.555 489.495 478.736C489.826 478.907 490.226 478.992 490.695 478.992C491.164 478.992 491.554 478.901 491.863 478.72C492.183 478.539 492.439 478.299 492.631 478C492.823 477.701 492.962 477.36 493.047 476.976C493.132 476.592 493.175 476.197 493.175 475.792ZM503.54 479.968C503.305 480.107 502.98 480.176 502.564 480.176C502.212 480.176 501.929 480.08 501.716 479.888C501.513 479.685 501.412 479.36 501.412 478.912C501.038 479.36 500.601 479.685 500.1 479.888C499.609 480.08 499.076 480.176 498.5 480.176C498.126 480.176 497.769 480.133 497.428 480.048C497.097 479.963 496.809 479.829 496.564 479.648C496.318 479.467 496.121 479.232 495.972 478.944C495.833 478.645 495.764 478.288 495.764 477.872C495.764 477.403 495.844 477.019 496.004 476.72C496.164 476.421 496.372 476.181 496.628 476C496.894 475.808 497.193 475.664 497.524 475.568C497.865 475.472 498.212 475.392 498.564 475.328C498.937 475.253 499.289 475.2 499.62 475.168C499.961 475.125 500.26 475.072 500.516 475.008C500.772 474.933 500.974 474.832 501.124 474.704C501.273 474.565 501.348 474.368 501.348 474.112C501.348 473.813 501.289 473.573 501.172 473.392C501.065 473.211 500.921 473.072 500.74 472.976C500.569 472.88 500.372 472.816 500.148 472.784C499.934 472.752 499.721 472.736 499.508 472.736C498.932 472.736 498.452 472.848 498.068 473.072C497.684 473.285 497.476 473.696 497.444 474.304H496.084C496.105 473.792 496.212 473.36 496.404 473.008C496.596 472.656 496.852 472.373 497.172 472.16C497.492 471.936 497.854 471.776 498.26 471.68C498.676 471.584 499.118 471.536 499.588 471.536C499.961 471.536 500.329 471.563 500.692 471.616C501.065 471.669 501.401 471.781 501.7 471.952C501.998 472.112 502.238 472.341 502.42 472.64C502.601 472.939 502.692 473.328 502.692 473.808V478.064C502.692 478.384 502.708 478.619 502.74 478.768C502.782 478.917 502.91 478.992 503.124 478.992C503.241 478.992 503.38 478.965 503.54 478.912V479.968ZM501.332 475.728C501.161 475.856 500.937 475.952 500.66 476.016C500.382 476.069 500.089 476.117 499.78 476.16C499.481 476.192 499.177 476.235 498.868 476.288C498.558 476.331 498.281 476.405 498.036 476.512C497.79 476.619 497.588 476.773 497.428 476.976C497.278 477.168 497.204 477.435 497.204 477.776C497.204 478 497.246 478.192 497.332 478.352C497.428 478.501 497.545 478.624 497.684 478.72C497.833 478.816 498.004 478.885 498.196 478.928C498.388 478.971 498.59 478.992 498.804 478.992C499.252 478.992 499.636 478.933 499.956 478.816C500.276 478.688 500.537 478.533 500.74 478.352C500.942 478.16 501.092 477.957 501.188 477.744C501.284 477.52 501.332 477.312 501.332 477.12V475.728ZM504.805 471.728H506.085V473.04H506.117C506.683 472.037 507.579 471.536 508.805 471.536C509.349 471.536 509.803 471.611 510.165 471.76C510.528 471.909 510.821 472.117 511.045 472.384C511.269 472.651 511.424 472.971 511.509 473.344C511.605 473.707 511.653 474.112 511.653 474.56V480H510.293V474.4C510.293 473.888 510.144 473.483 509.845 473.184C509.547 472.885 509.136 472.736 508.613 472.736C508.197 472.736 507.835 472.8 507.525 472.928C507.227 473.056 506.976 473.237 506.773 473.472C506.571 473.707 506.416 473.984 506.309 474.304C506.213 474.613 506.165 474.955 506.165 475.328V480H504.805V471.728ZM516.944 481.104C516.784 481.509 516.624 481.851 516.464 482.128C516.315 482.405 516.144 482.629 515.952 482.8C515.771 482.981 515.563 483.109 515.328 483.184C515.104 483.269 514.843 483.312 514.544 483.312C514.384 483.312 514.224 483.301 514.064 483.28C513.904 483.259 513.749 483.221 513.6 483.168V481.92C513.717 481.973 513.851 482.016 514 482.048C514.16 482.091 514.293 482.112 514.4 482.112C514.677 482.112 514.907 482.043 515.088 481.904C515.28 481.776 515.424 481.589 515.52 481.344L516.08 479.952L512.8 471.728H514.336L516.752 478.496H516.784L519.104 471.728H520.544L516.944 481.104Z" fill="white"/>
                            <path d="M459.192 111.92C459.107 111.099 458.808 110.507 458.296 110.144C457.795 109.771 457.149 109.584 456.36 109.584C456.04 109.584 455.725 109.616 455.416 109.68C455.107 109.744 454.829 109.851 454.584 110C454.349 110.149 454.157 110.352 454.008 110.608C453.869 110.853 453.8 111.163 453.8 111.536C453.8 111.888 453.901 112.176 454.104 112.4C454.317 112.613 454.595 112.789 454.936 112.928C455.288 113.067 455.683 113.184 456.12 113.28C456.557 113.365 457 113.461 457.448 113.568C457.907 113.675 458.355 113.803 458.792 113.952C459.229 114.091 459.619 114.283 459.96 114.528C460.312 114.773 460.589 115.083 460.792 115.456C461.005 115.829 461.112 116.299 461.112 116.864C461.112 117.472 460.973 117.995 460.696 118.432C460.429 118.859 460.083 119.211 459.656 119.488C459.229 119.755 458.749 119.947 458.216 120.064C457.693 120.192 457.171 120.256 456.648 120.256C456.008 120.256 455.4 120.176 454.824 120.016C454.259 119.856 453.757 119.616 453.32 119.296C452.893 118.965 452.552 118.549 452.296 118.048C452.051 117.536 451.928 116.933 451.928 116.24H453.368C453.368 116.72 453.459 117.136 453.64 117.488C453.832 117.829 454.077 118.112 454.376 118.336C454.685 118.56 455.043 118.725 455.448 118.832C455.853 118.939 456.269 118.992 456.696 118.992C457.037 118.992 457.379 118.96 457.72 118.896C458.072 118.832 458.387 118.725 458.664 118.576C458.941 118.416 459.165 118.203 459.336 117.936C459.507 117.669 459.592 117.328 459.592 116.912C459.592 116.517 459.485 116.197 459.272 115.952C459.069 115.707 458.792 115.509 458.44 115.36C458.099 115.2 457.709 115.072 457.272 114.976C456.835 114.88 456.387 114.784 455.928 114.688C455.48 114.581 455.037 114.464 454.6 114.336C454.163 114.197 453.768 114.021 453.416 113.808C453.075 113.584 452.797 113.301 452.584 112.96C452.381 112.608 452.28 112.171 452.28 111.648C452.28 111.072 452.397 110.576 452.632 110.16C452.867 109.733 453.176 109.387 453.56 109.12C453.955 108.843 454.397 108.64 454.888 108.512C455.389 108.373 455.901 108.304 456.424 108.304C457.011 108.304 457.555 108.373 458.056 108.512C458.557 108.651 458.995 108.869 459.368 109.168C459.752 109.467 460.051 109.845 460.264 110.304C460.488 110.752 460.611 111.291 460.632 111.92H459.192ZM462.783 111.728H464.143V112.848H464.175C464.399 112.389 464.751 112.059 465.231 111.856C465.711 111.643 466.239 111.536 466.815 111.536C467.455 111.536 468.01 111.653 468.479 111.888C468.959 112.123 469.354 112.443 469.663 112.848C469.983 113.243 470.223 113.701 470.383 114.224C470.543 114.747 470.623 115.301 470.623 115.888C470.623 116.475 470.543 117.029 470.383 117.552C470.234 118.075 469.999 118.533 469.679 118.928C469.37 119.312 468.975 119.616 468.495 119.84C468.026 120.064 467.476 120.176 466.847 120.176C466.644 120.176 466.415 120.155 466.159 120.112C465.914 120.069 465.668 120 465.423 119.904C465.178 119.808 464.943 119.68 464.719 119.52C464.506 119.349 464.324 119.141 464.175 118.896H464.143V123.152H462.783V111.728ZM469.183 115.792C469.183 115.408 469.13 115.035 469.023 114.672C468.927 114.299 468.772 113.968 468.559 113.68C468.356 113.392 468.09 113.163 467.759 112.992C467.439 112.821 467.06 112.736 466.623 112.736C466.164 112.736 465.775 112.827 465.455 113.008C465.135 113.189 464.874 113.429 464.671 113.728C464.468 114.016 464.319 114.347 464.223 114.72C464.138 115.093 464.095 115.472 464.095 115.856C464.095 116.261 464.143 116.656 464.239 117.04C464.335 117.413 464.484 117.744 464.687 118.032C464.9 118.32 465.172 118.555 465.503 118.736C465.834 118.907 466.234 118.992 466.703 118.992C467.172 118.992 467.562 118.901 467.871 118.72C468.191 118.539 468.447 118.299 468.639 118C468.831 117.701 468.97 117.36 469.055 116.976C469.14 116.592 469.183 116.197 469.183 115.792ZM477.963 115.072C477.942 114.752 477.867 114.448 477.739 114.16C477.622 113.872 477.457 113.627 477.243 113.424C477.041 113.211 476.795 113.045 476.507 112.928C476.23 112.8 475.921 112.736 475.579 112.736C475.227 112.736 474.907 112.8 474.619 112.928C474.342 113.045 474.102 113.211 473.899 113.424C473.697 113.637 473.537 113.888 473.419 114.176C473.302 114.453 473.233 114.752 473.211 115.072H477.963ZM479.275 117.376C479.094 118.304 478.694 119.003 478.075 119.472C477.457 119.941 476.678 120.176 475.739 120.176C475.078 120.176 474.502 120.069 474.011 119.856C473.531 119.643 473.126 119.344 472.795 118.96C472.465 118.576 472.214 118.117 472.043 117.584C471.883 117.051 471.793 116.469 471.771 115.84C471.771 115.211 471.867 114.635 472.059 114.112C472.251 113.589 472.518 113.136 472.859 112.752C473.211 112.368 473.622 112.069 474.091 111.856C474.571 111.643 475.094 111.536 475.659 111.536C476.395 111.536 477.003 111.691 477.483 112C477.974 112.299 478.363 112.683 478.651 113.152C478.95 113.621 479.153 114.133 479.259 114.688C479.377 115.243 479.425 115.771 479.403 116.272H473.211C473.201 116.635 473.243 116.981 473.339 117.312C473.435 117.632 473.59 117.92 473.803 118.176C474.017 118.421 474.289 118.619 474.619 118.768C474.95 118.917 475.339 118.992 475.787 118.992C476.363 118.992 476.833 118.859 477.195 118.592C477.569 118.325 477.814 117.92 477.931 117.376H479.275ZM486.429 114.384C486.322 113.861 486.098 113.456 485.757 113.168C485.416 112.88 484.957 112.736 484.381 112.736C483.89 112.736 483.48 112.827 483.149 113.008C482.818 113.189 482.552 113.429 482.349 113.728C482.157 114.027 482.018 114.373 481.933 114.768C481.848 115.152 481.805 115.552 481.805 115.968C481.805 116.352 481.848 116.725 481.933 117.088C482.029 117.451 482.173 117.776 482.365 118.064C482.557 118.341 482.808 118.565 483.117 118.736C483.426 118.907 483.794 118.992 484.221 118.992C484.893 118.992 485.416 118.816 485.789 118.464C486.173 118.112 486.408 117.616 486.493 116.976H487.885C487.736 118 487.352 118.789 486.733 119.344C486.125 119.899 485.293 120.176 484.237 120.176C483.608 120.176 483.048 120.075 482.557 119.872C482.077 119.669 481.672 119.381 481.341 119.008C481.021 118.635 480.776 118.192 480.605 117.68C480.445 117.157 480.365 116.587 480.365 115.968C480.365 115.349 480.445 114.773 480.605 114.24C480.765 113.696 481.005 113.227 481.325 112.832C481.656 112.427 482.066 112.112 482.557 111.888C483.048 111.653 483.618 111.536 484.269 111.536C484.738 111.536 485.176 111.595 485.581 111.712C485.997 111.819 486.36 111.989 486.669 112.224C486.989 112.459 487.25 112.757 487.453 113.12C487.656 113.472 487.784 113.893 487.837 114.384H486.429ZM490.847 110.24H489.487V108.576H490.847V110.24ZM489.487 111.728H490.847V120H489.487V111.728ZM500.282 119.968C500.047 120.107 499.722 120.176 499.306 120.176C498.954 120.176 498.671 120.08 498.458 119.888C498.255 119.685 498.154 119.36 498.154 118.912C497.78 119.36 497.343 119.685 496.842 119.888C496.351 120.08 495.818 120.176 495.242 120.176C494.868 120.176 494.511 120.133 494.17 120.048C493.839 119.963 493.551 119.829 493.306 119.648C493.06 119.467 492.863 119.232 492.714 118.944C492.575 118.645 492.506 118.288 492.506 117.872C492.506 117.403 492.586 117.019 492.746 116.72C492.906 116.421 493.114 116.181 493.37 116C493.636 115.808 493.935 115.664 494.266 115.568C494.607 115.472 494.954 115.392 495.306 115.328C495.679 115.253 496.031 115.2 496.362 115.168C496.703 115.125 497.002 115.072 497.258 115.008C497.514 114.933 497.716 114.832 497.866 114.704C498.015 114.565 498.09 114.368 498.09 114.112C498.09 113.813 498.031 113.573 497.914 113.392C497.807 113.211 497.663 113.072 497.482 112.976C497.311 112.88 497.114 112.816 496.89 112.784C496.676 112.752 496.463 112.736 496.25 112.736C495.674 112.736 495.194 112.848 494.81 113.072C494.426 113.285 494.218 113.696 494.186 114.304H492.826C492.847 113.792 492.954 113.36 493.146 113.008C493.338 112.656 493.594 112.373 493.914 112.16C494.234 111.936 494.596 111.776 495.002 111.68C495.418 111.584 495.86 111.536 496.33 111.536C496.703 111.536 497.071 111.563 497.434 111.616C497.807 111.669 498.143 111.781 498.442 111.952C498.74 112.112 498.98 112.341 499.162 112.64C499.343 112.939 499.434 113.328 499.434 113.808V118.064C499.434 118.384 499.45 118.619 499.482 118.768C499.524 118.917 499.652 118.992 499.866 118.992C499.983 118.992 500.122 118.965 500.282 118.912V119.968ZM498.074 115.728C497.903 115.856 497.679 115.952 497.402 116.016C497.124 116.069 496.831 116.117 496.522 116.16C496.223 116.192 495.919 116.235 495.61 116.288C495.3 116.331 495.023 116.405 494.778 116.512C494.532 116.619 494.33 116.773 494.17 116.976C494.02 117.168 493.946 117.435 493.946 117.776C493.946 118 493.988 118.192 494.074 118.352C494.17 118.501 494.287 118.624 494.426 118.72C494.575 118.816 494.746 118.885 494.938 118.928C495.13 118.971 495.332 118.992 495.546 118.992C495.994 118.992 496.378 118.933 496.698 118.816C497.018 118.688 497.279 118.533 497.482 118.352C497.684 118.16 497.834 117.957 497.93 117.744C498.026 117.52 498.074 117.312 498.074 117.12V115.728ZM501.627 108.576H502.987V120H501.627V108.576ZM506.534 110.24H505.174V108.576H506.534V110.24ZM505.174 111.728H506.534V120H505.174V111.728ZM510.529 111.728H512.177V112.928H510.529V118.064C510.529 118.224 510.54 118.352 510.561 118.448C510.593 118.544 510.647 118.619 510.721 118.672C510.796 118.725 510.897 118.763 511.025 118.784C511.164 118.795 511.34 118.8 511.553 118.8H512.177V120H511.137C510.785 120 510.481 119.979 510.225 119.936C509.98 119.883 509.777 119.792 509.617 119.664C509.468 119.536 509.356 119.355 509.281 119.12C509.207 118.885 509.169 118.576 509.169 118.192V112.928H507.761V111.728H509.169V109.248H510.529V111.728ZM516.936 121.104C516.776 121.509 516.616 121.851 516.456 122.128C516.307 122.405 516.136 122.629 515.944 122.8C515.763 122.981 515.555 123.109 515.32 123.184C515.096 123.269 514.835 123.312 514.536 123.312C514.376 123.312 514.216 123.301 514.056 123.28C513.896 123.259 513.741 123.221 513.592 123.168V121.92C513.709 121.973 513.843 122.016 513.992 122.048C514.152 122.091 514.285 122.112 514.392 122.112C514.669 122.112 514.899 122.043 515.08 121.904C515.272 121.776 515.416 121.589 515.512 121.344L516.072 119.952L512.792 111.728H514.328L516.744 118.496H516.776L519.096 111.728H520.536L516.936 121.104Z" fill="white"/>
                            <path d="M469.499 492.016C469.328 491.205 468.949 490.597 468.363 490.192C467.787 489.787 467.099 489.584 466.299 489.584C465.616 489.584 465.029 489.712 464.539 489.968C464.059 490.224 463.659 490.571 463.339 491.008C463.029 491.435 462.8 491.925 462.651 492.48C462.501 493.035 462.427 493.611 462.427 494.208C462.427 494.859 462.501 495.477 462.651 496.064C462.8 496.64 463.029 497.147 463.339 497.584C463.659 498.011 464.064 498.352 464.555 498.608C465.045 498.864 465.632 498.992 466.315 498.992C466.816 498.992 467.259 498.912 467.643 498.752C468.037 498.581 468.373 498.352 468.651 498.064C468.939 497.765 469.163 497.413 469.323 497.008C469.483 496.603 469.579 496.165 469.611 495.696H471.131C470.981 497.136 470.485 498.256 469.643 499.056C468.8 499.856 467.648 500.256 466.187 500.256C465.301 500.256 464.528 500.107 463.867 499.808C463.205 499.499 462.656 499.077 462.219 498.544C461.781 498.011 461.451 497.381 461.227 496.656C461.013 495.931 460.907 495.152 460.907 494.32C460.907 493.488 461.024 492.709 461.259 491.984C461.493 491.248 461.835 490.608 462.283 490.064C462.741 489.52 463.307 489.093 463.979 488.784C464.661 488.464 465.44 488.304 466.315 488.304C466.912 488.304 467.477 488.384 468.011 488.544C468.544 488.704 469.019 488.939 469.435 489.248C469.851 489.557 470.197 489.947 470.475 490.416C470.752 490.875 470.933 491.408 471.019 492.016H469.499ZM479.638 500H478.358V498.688H478.326C478.038 499.2 477.67 499.579 477.222 499.824C476.774 500.059 476.246 500.176 475.638 500.176C475.094 500.176 474.64 500.107 474.278 499.968C473.915 499.819 473.622 499.611 473.398 499.344C473.174 499.077 473.014 498.763 472.918 498.4C472.832 498.027 472.79 497.616 472.79 497.168V491.728H474.15V497.328C474.15 497.84 474.299 498.245 474.598 498.544C474.896 498.843 475.307 498.992 475.83 498.992C476.246 498.992 476.603 498.928 476.902 498.8C477.211 498.672 477.467 498.491 477.67 498.256C477.872 498.021 478.022 497.749 478.118 497.44C478.224 497.12 478.278 496.773 478.278 496.4V491.728H479.638V500ZM481.76 488.576H483.12V500H481.76V488.576ZM487.115 491.728H488.763V492.928H487.115V498.064C487.115 498.224 487.126 498.352 487.147 498.448C487.179 498.544 487.232 498.619 487.307 498.672C487.382 498.725 487.483 498.763 487.611 498.784C487.75 498.795 487.926 498.8 488.139 498.8H488.763V500H487.723C487.371 500 487.067 499.979 486.811 499.936C486.566 499.883 486.363 499.792 486.203 499.664C486.054 499.536 485.942 499.355 485.867 499.12C485.792 498.885 485.755 498.576 485.755 498.192V492.928H484.347V491.728H485.755V489.248H487.115V491.728ZM497.122 500H495.842V498.688H495.81C495.522 499.2 495.154 499.579 494.706 499.824C494.258 500.059 493.73 500.176 493.122 500.176C492.578 500.176 492.125 500.107 491.762 499.968C491.399 499.819 491.106 499.611 490.882 499.344C490.658 499.077 490.498 498.763 490.402 498.4C490.317 498.027 490.274 497.616 490.274 497.168V491.728H491.634V497.328C491.634 497.84 491.783 498.245 492.082 498.544C492.381 498.843 492.791 498.992 493.314 498.992C493.73 498.992 494.087 498.928 494.386 498.8C494.695 498.672 494.951 498.491 495.154 498.256C495.357 498.021 495.506 497.749 495.602 497.44C495.709 497.12 495.762 496.773 495.762 496.4V491.728H497.122V500ZM499.117 491.728H500.397V493.472H500.429C500.759 492.8 501.165 492.304 501.645 491.984C502.125 491.664 502.733 491.515 503.469 491.536V492.976C502.925 492.976 502.461 493.051 502.077 493.2C501.693 493.349 501.383 493.568 501.149 493.856C500.914 494.144 500.743 494.496 500.637 494.912C500.53 495.317 500.477 495.787 500.477 496.32V500H499.117V491.728ZM509.956 495.072C509.934 494.752 509.86 494.448 509.732 494.16C509.614 493.872 509.449 493.627 509.236 493.424C509.033 493.211 508.788 493.045 508.5 492.928C508.222 492.8 507.913 492.736 507.572 492.736C507.22 492.736 506.9 492.8 506.612 492.928C506.334 493.045 506.094 493.211 505.892 493.424C505.689 493.637 505.529 493.888 505.412 494.176C505.294 494.453 505.225 494.752 505.204 495.072H509.956ZM511.267 497.376C511.086 498.304 510.686 499.003 510.068 499.472C509.449 499.941 508.67 500.176 507.732 500.176C507.07 500.176 506.494 500.069 506.004 499.856C505.524 499.643 505.118 499.344 504.788 498.96C504.457 498.576 504.206 498.117 504.036 497.584C503.876 497.051 503.785 496.469 503.764 495.84C503.764 495.211 503.86 494.635 504.052 494.112C504.244 493.589 504.51 493.136 504.852 492.752C505.204 492.368 505.614 492.069 506.084 491.856C506.564 491.643 507.086 491.536 507.652 491.536C508.388 491.536 508.996 491.691 509.476 492C509.966 492.299 510.356 492.683 510.644 493.152C510.942 493.621 511.145 494.133 511.252 494.688C511.369 495.243 511.417 495.771 511.396 496.272H505.204C505.193 496.635 505.236 496.981 505.332 497.312C505.428 497.632 505.582 497.92 505.796 498.176C506.009 498.421 506.281 498.619 506.612 498.768C506.942 498.917 507.332 498.992 507.78 498.992C508.356 498.992 508.825 498.859 509.188 498.592C509.561 498.325 509.806 497.92 509.924 497.376H511.267Z" fill="white"/>
                            <path d="M31.2055 314.72H33.7335C33.9042 314.72 34.1175 314.709 34.3735 314.688C34.6295 314.656 34.9015 314.592 35.1895 314.496C35.4775 314.389 35.7602 314.24 36.0375 314.048C36.3255 313.856 36.5815 313.595 36.8055 313.264C37.0295 312.933 37.2108 312.523 37.3495 312.032C37.4988 311.531 37.5735 310.928 37.5735 310.224C37.5735 309.541 37.5042 308.933 37.3655 308.4C37.2375 307.856 37.0188 307.397 36.7095 307.024C36.4108 306.64 36.0215 306.352 35.5415 306.16C35.0615 305.957 34.4695 305.856 33.7655 305.856H31.2055V314.72ZM29.6855 304.576H33.6055C35.3655 304.576 36.7202 305.024 37.6695 305.92C38.6188 306.816 39.0935 308.181 39.0935 310.016C39.0935 310.976 38.9868 311.829 38.7735 312.576C38.5602 313.312 38.2295 313.936 37.7815 314.448C37.3335 314.949 36.7628 315.333 36.0695 315.6C35.3762 315.867 34.5548 316 33.6055 316H29.6855V304.576ZM41.7191 311.872C41.7191 312.373 41.7831 312.821 41.9111 313.216C42.0498 313.6 42.2365 313.925 42.4711 314.192C42.7058 314.448 42.9778 314.645 43.2871 314.784C43.6071 314.923 43.9431 314.992 44.2951 314.992C44.6471 314.992 44.9778 314.923 45.2871 314.784C45.6071 314.645 45.8845 314.448 46.1191 314.192C46.3538 313.925 46.5351 313.6 46.6631 313.216C46.8018 312.821 46.8711 312.373 46.8711 311.872C46.8711 311.371 46.8018 310.928 46.6631 310.544C46.5351 310.149 46.3538 309.819 46.1191 309.552C45.8845 309.285 45.6071 309.083 45.2871 308.944C44.9778 308.805 44.6471 308.736 44.2951 308.736C43.9431 308.736 43.6071 308.805 43.2871 308.944C42.9778 309.083 42.7058 309.285 42.4711 309.552C42.2365 309.819 42.0498 310.149 41.9111 310.544C41.7831 310.928 41.7191 311.371 41.7191 311.872ZM40.2791 311.872C40.2791 311.264 40.3645 310.699 40.5351 310.176C40.7058 309.643 40.9618 309.184 41.3031 308.8C41.6445 308.405 42.0658 308.096 42.5671 307.872C43.0685 307.648 43.6445 307.536 44.2951 307.536C44.9565 307.536 45.5325 307.648 46.0231 307.872C46.5245 308.096 46.9458 308.405 47.2871 308.8C47.6285 309.184 47.8845 309.643 48.0551 310.176C48.2258 310.699 48.3111 311.264 48.3111 311.872C48.3111 312.48 48.2258 313.045 48.0551 313.568C47.8845 314.091 47.6285 314.549 47.2871 314.944C46.9458 315.328 46.5245 315.632 46.0231 315.856C45.5325 316.069 44.9565 316.176 44.2951 316.176C43.6445 316.176 43.0685 316.069 42.5671 315.856C42.0658 315.632 41.6445 315.328 41.3031 314.944C40.9618 314.549 40.7058 314.091 40.5351 313.568C40.3645 313.045 40.2791 312.48 40.2791 311.872ZM49.9146 307.728H51.1946V308.944H51.2266C51.8453 308.005 52.736 307.536 53.8986 307.536C54.4106 307.536 54.8746 307.643 55.2906 307.856C55.7066 308.069 56 308.432 56.1706 308.944C56.448 308.496 56.8106 308.149 57.2586 307.904C57.7173 307.659 58.2186 307.536 58.7626 307.536C59.1786 307.536 59.552 307.584 59.8826 307.68C60.224 307.765 60.512 307.904 60.7466 308.096C60.992 308.288 61.1786 308.539 61.3066 308.848C61.4453 309.147 61.5146 309.509 61.5146 309.936V316H60.1546V310.576C60.1546 310.32 60.1333 310.08 60.0906 309.856C60.048 309.632 59.968 309.44 59.8506 309.28C59.7333 309.109 59.568 308.976 59.3546 308.88C59.152 308.784 58.8853 308.736 58.5546 308.736C57.8826 308.736 57.3546 308.928 56.9706 309.312C56.5866 309.696 56.3946 310.208 56.3946 310.848V316H55.0346V310.576C55.0346 310.309 55.008 310.064 54.9546 309.84C54.912 309.616 54.832 309.424 54.7146 309.264C54.5973 309.093 54.4373 308.965 54.2346 308.88C54.0426 308.784 53.792 308.736 53.4826 308.736C53.088 308.736 52.7466 308.816 52.4586 308.976C52.1813 309.136 51.952 309.328 51.7706 309.552C51.6 309.776 51.472 310.011 51.3866 310.256C51.312 310.491 51.2746 310.688 51.2746 310.848V316H49.9146V307.728ZM70.8833 315.968C70.6486 316.107 70.3233 316.176 69.9073 316.176C69.5553 316.176 69.2726 316.08 69.0593 315.888C68.8566 315.685 68.7553 315.36 68.7553 314.912C68.3819 315.36 67.9446 315.685 67.4433 315.888C66.9526 316.08 66.4193 316.176 65.8433 316.176C65.4699 316.176 65.1126 316.133 64.7713 316.048C64.4406 315.963 64.1526 315.829 63.9073 315.648C63.6619 315.467 63.4646 315.232 63.3153 314.944C63.1766 314.645 63.1073 314.288 63.1073 313.872C63.1073 313.403 63.1873 313.019 63.3473 312.72C63.5073 312.421 63.7153 312.181 63.9713 312C64.2379 311.808 64.5366 311.664 64.8673 311.568C65.2086 311.472 65.5553 311.392 65.9073 311.328C66.2806 311.253 66.6326 311.2 66.9633 311.168C67.3046 311.125 67.6033 311.072 67.8593 311.008C68.1153 310.933 68.3179 310.832 68.4673 310.704C68.6166 310.565 68.6913 310.368 68.6913 310.112C68.6913 309.813 68.6326 309.573 68.5153 309.392C68.4086 309.211 68.2646 309.072 68.0833 308.976C67.9126 308.88 67.7153 308.816 67.4913 308.784C67.2779 308.752 67.0646 308.736 66.8513 308.736C66.2753 308.736 65.7953 308.848 65.4113 309.072C65.0273 309.285 64.8193 309.696 64.7873 310.304H63.4273C63.4486 309.792 63.5553 309.36 63.7473 309.008C63.9393 308.656 64.1953 308.373 64.5153 308.16C64.8353 307.936 65.1979 307.776 65.6033 307.68C66.0193 307.584 66.4619 307.536 66.9313 307.536C67.3046 307.536 67.6726 307.563 68.0353 307.616C68.4086 307.669 68.7446 307.781 69.0433 307.952C69.3419 308.112 69.5819 308.341 69.7633 308.64C69.9446 308.939 70.0353 309.328 70.0353 309.808V314.064C70.0353 314.384 70.0513 314.619 70.0833 314.768C70.1259 314.917 70.2539 314.992 70.4673 314.992C70.5846 314.992 70.7233 314.965 70.8833 314.912V315.968ZM68.6753 311.728C68.5046 311.856 68.2806 311.952 68.0033 312.016C67.7259 312.069 67.4326 312.117 67.1233 312.16C66.8246 312.192 66.5206 312.235 66.2113 312.288C65.9019 312.331 65.6246 312.405 65.3793 312.512C65.1339 312.619 64.9313 312.773 64.7713 312.976C64.6219 313.168 64.5473 313.435 64.5473 313.776C64.5473 314 64.5899 314.192 64.6753 314.352C64.7713 314.501 64.8886 314.624 65.0273 314.72C65.1766 314.816 65.3473 314.885 65.5393 314.928C65.7313 314.971 65.9339 314.992 66.1473 314.992C66.5953 314.992 66.9793 314.933 67.2993 314.816C67.6193 314.688 67.8806 314.533 68.0833 314.352C68.2859 314.16 68.4353 313.957 68.5313 313.744C68.6273 313.52 68.6753 313.312 68.6753 313.12V311.728ZM73.589 306.24H72.229V304.576H73.589V306.24ZM72.229 307.728H73.589V316H72.229V307.728ZM75.6959 307.728H76.9759V309.04H77.0079C77.5732 308.037 78.4692 307.536 79.6959 307.536C80.2399 307.536 80.6932 307.611 81.0559 307.76C81.4185 307.909 81.7119 308.117 81.9359 308.384C82.1599 308.651 82.3145 308.971 82.3999 309.344C82.4959 309.707 82.5439 310.112 82.5439 310.56V316H81.1839V310.4C81.1839 309.888 81.0345 309.483 80.7359 309.184C80.4372 308.885 80.0265 308.736 79.5039 308.736C79.0879 308.736 78.7252 308.8 78.4159 308.928C78.1172 309.056 77.8665 309.237 77.6639 309.472C77.4612 309.707 77.3065 309.984 77.1999 310.304C77.1039 310.613 77.0559 310.955 77.0559 311.328V316H75.6959V307.728Z" fill="white"/>
                            <path d="M92.8009 489.856H88.9929V488.576H98.1289V489.856H94.3209V500H92.8009V489.856ZM98.3832 495.872C98.3832 496.373 98.4472 496.821 98.5752 497.216C98.7139 497.6 98.9005 497.925 99.1352 498.192C99.3699 498.448 99.6419 498.645 99.9512 498.784C100.271 498.923 100.607 498.992 100.959 498.992C101.311 498.992 101.642 498.923 101.951 498.784C102.271 498.645 102.549 498.448 102.783 498.192C103.018 497.925 103.199 497.6 103.327 497.216C103.466 496.821 103.535 496.373 103.535 495.872C103.535 495.371 103.466 494.928 103.327 494.544C103.199 494.149 103.018 493.819 102.783 493.552C102.549 493.285 102.271 493.083 101.951 492.944C101.642 492.805 101.311 492.736 100.959 492.736C100.607 492.736 100.271 492.805 99.9512 492.944C99.6419 493.083 99.3699 493.285 99.1352 493.552C98.9005 493.819 98.7139 494.149 98.5752 494.544C98.4472 494.928 98.3832 495.371 98.3832 495.872ZM96.9432 495.872C96.9432 495.264 97.0285 494.699 97.1992 494.176C97.3699 493.643 97.6259 493.184 97.9672 492.8C98.3085 492.405 98.7299 492.096 99.2312 491.872C99.7325 491.648 100.309 491.536 100.959 491.536C101.621 491.536 102.197 491.648 102.687 491.872C103.189 492.096 103.61 492.405 103.951 492.8C104.293 493.184 104.549 493.643 104.719 494.176C104.89 494.699 104.975 495.264 104.975 495.872C104.975 496.48 104.89 497.045 104.719 497.568C104.549 498.091 104.293 498.549 103.951 498.944C103.61 499.328 103.189 499.632 102.687 499.856C102.197 500.069 101.621 500.176 100.959 500.176C100.309 500.176 99.7325 500.069 99.2312 499.856C98.7299 499.632 98.3085 499.328 97.9672 498.944C97.6259 498.549 97.3699 498.091 97.1992 497.568C97.0285 497.045 96.9432 496.48 96.9432 495.872ZM106.579 491.728H107.859V493.04H107.891C108.456 492.037 109.352 491.536 110.579 491.536C111.123 491.536 111.576 491.611 111.939 491.76C112.301 491.909 112.595 492.117 112.819 492.384C113.043 492.651 113.197 492.971 113.283 493.344C113.379 493.707 113.427 494.112 113.427 494.56V500H112.067V494.4C112.067 493.888 111.917 493.483 111.619 493.184C111.32 492.885 110.909 492.736 110.387 492.736C109.971 492.736 109.608 492.8 109.299 492.928C109 493.056 108.749 493.237 108.547 493.472C108.344 493.707 108.189 493.984 108.083 494.304C107.987 494.613 107.939 494.955 107.939 495.328V500H106.579V491.728ZM121.213 495.072C121.192 494.752 121.117 494.448 120.989 494.16C120.872 493.872 120.707 493.627 120.493 493.424C120.291 493.211 120.045 493.045 119.757 492.928C119.48 492.8 119.171 492.736 118.829 492.736C118.477 492.736 118.157 492.8 117.869 492.928C117.592 493.045 117.352 493.211 117.149 493.424C116.947 493.637 116.787 493.888 116.669 494.176C116.552 494.453 116.483 494.752 116.461 495.072H121.213ZM122.525 497.376C122.344 498.304 121.944 499.003 121.325 499.472C120.707 499.941 119.928 500.176 118.989 500.176C118.328 500.176 117.752 500.069 117.261 499.856C116.781 499.643 116.376 499.344 116.045 498.96C115.715 498.576 115.464 498.117 115.293 497.584C115.133 497.051 115.043 496.469 115.021 495.84C115.021 495.211 115.117 494.635 115.309 494.112C115.501 493.589 115.768 493.136 116.109 492.752C116.461 492.368 116.872 492.069 117.341 491.856C117.821 491.643 118.344 491.536 118.909 491.536C119.645 491.536 120.253 491.691 120.733 492C121.224 492.299 121.613 492.683 121.901 493.152C122.2 493.621 122.403 494.133 122.509 494.688C122.627 495.243 122.675 495.771 122.653 496.272H116.461C116.451 496.635 116.493 496.981 116.589 497.312C116.685 497.632 116.84 497.92 117.053 498.176C117.267 498.421 117.539 498.619 117.869 498.768C118.2 498.917 118.589 498.992 119.037 498.992C119.613 498.992 120.083 498.859 120.445 498.592C120.819 498.325 121.064 497.92 121.181 497.376H122.525Z" fill="white"/>
                            <path d="M87.3404 111.92C87.255 111.099 86.9564 110.507 86.4444 110.144C85.943 109.771 85.2977 109.584 84.5084 109.584C84.1884 109.584 83.8737 109.616 83.5644 109.68C83.255 109.744 82.9777 109.851 82.7324 110C82.4977 110.149 82.3057 110.352 82.1564 110.608C82.0177 110.853 81.9484 111.163 81.9484 111.536C81.9484 111.888 82.0497 112.176 82.2524 112.4C82.4657 112.613 82.743 112.789 83.0844 112.928C83.4364 113.067 83.831 113.184 84.2684 113.28C84.7057 113.365 85.1484 113.461 85.5964 113.568C86.055 113.675 86.503 113.803 86.9404 113.952C87.3777 114.091 87.767 114.283 88.1084 114.528C88.4604 114.773 88.7377 115.083 88.9404 115.456C89.1537 115.829 89.2604 116.299 89.2604 116.864C89.2604 117.472 89.1217 117.995 88.8444 118.432C88.5777 118.859 88.231 119.211 87.8044 119.488C87.3777 119.755 86.8977 119.947 86.3644 120.064C85.8417 120.192 85.319 120.256 84.7964 120.256C84.1564 120.256 83.5484 120.176 82.9724 120.016C82.407 119.856 81.9057 119.616 81.4684 119.296C81.0417 118.965 80.7004 118.549 80.4444 118.048C80.199 117.536 80.0764 116.933 80.0764 116.24H81.5164C81.5164 116.72 81.607 117.136 81.7884 117.488C81.9804 117.829 82.2257 118.112 82.5244 118.336C82.8337 118.56 83.191 118.725 83.5964 118.832C84.0017 118.939 84.4177 118.992 84.8444 118.992C85.1857 118.992 85.527 118.96 85.8684 118.896C86.2204 118.832 86.535 118.725 86.8124 118.576C87.0897 118.416 87.3137 118.203 87.4844 117.936C87.655 117.669 87.7404 117.328 87.7404 116.912C87.7404 116.517 87.6337 116.197 87.4204 115.952C87.2177 115.707 86.9404 115.509 86.5884 115.36C86.247 115.2 85.8577 115.072 85.4204 114.976C84.983 114.88 84.535 114.784 84.0764 114.688C83.6284 114.581 83.1857 114.464 82.7484 114.336C82.311 114.197 81.9164 114.021 81.5644 113.808C81.223 113.584 80.9457 113.301 80.7324 112.96C80.5297 112.608 80.4284 112.171 80.4284 111.648C80.4284 111.072 80.5457 110.576 80.7804 110.16C81.015 109.733 81.3244 109.387 81.7084 109.12C82.103 108.843 82.5457 108.64 83.0364 108.512C83.5377 108.373 84.0497 108.304 84.5724 108.304C85.159 108.304 85.703 108.373 86.2044 108.512C86.7057 108.651 87.143 108.869 87.5164 109.168C87.9004 109.467 88.199 109.845 88.4124 110.304C88.6364 110.752 88.759 111.291 88.7804 111.92H87.3404ZM96.6274 115.072C96.606 114.752 96.5314 114.448 96.4034 114.16C96.286 113.872 96.1207 113.627 95.9074 113.424C95.7047 113.211 95.4594 113.045 95.1714 112.928C94.894 112.8 94.5847 112.736 94.2434 112.736C93.8914 112.736 93.5714 112.8 93.2834 112.928C93.006 113.045 92.766 113.211 92.5634 113.424C92.3607 113.637 92.2007 113.888 92.0834 114.176C91.966 114.453 91.8967 114.752 91.8754 115.072H96.6274ZM97.9394 117.376C97.758 118.304 97.358 119.003 96.7394 119.472C96.1207 119.941 95.342 120.176 94.4034 120.176C93.742 120.176 93.166 120.069 92.6754 119.856C92.1954 119.643 91.79 119.344 91.4594 118.96C91.1287 118.576 90.878 118.117 90.7074 117.584C90.5474 117.051 90.4567 116.469 90.4354 115.84C90.4354 115.211 90.5314 114.635 90.7234 114.112C90.9154 113.589 91.182 113.136 91.5234 112.752C91.8754 112.368 92.286 112.069 92.7554 111.856C93.2354 111.643 93.758 111.536 94.3234 111.536C95.0594 111.536 95.6674 111.691 96.1474 112C96.638 112.299 97.0274 112.683 97.3154 113.152C97.614 113.621 97.8167 114.133 97.9234 114.688C98.0407 115.243 98.0887 115.771 98.0674 116.272H91.8754C91.8647 116.635 91.9074 116.981 92.0034 117.312C92.0994 117.632 92.254 117.92 92.4674 118.176C92.6807 118.421 92.9527 118.619 93.2834 118.768C93.614 118.917 94.0034 118.992 94.4514 118.992C95.0274 118.992 95.4967 118.859 95.8594 118.592C96.2327 118.325 96.478 117.92 96.5954 117.376H97.9394ZM99.4291 111.728H100.709V113.472H100.741C101.072 112.8 101.477 112.304 101.957 111.984C102.437 111.664 103.045 111.515 103.781 111.536V112.976C103.237 112.976 102.773 113.051 102.389 113.2C102.005 113.349 101.696 113.568 101.461 113.856C101.226 114.144 101.056 114.496 100.949 114.912C100.842 115.317 100.789 115.787 100.789 116.32V120H99.4291V111.728ZM108.533 120H107.077L104.005 111.728H105.525L107.845 118.624H107.877L110.133 111.728H111.557L108.533 120ZM114.245 110.24H112.885V108.576H114.245V110.24ZM112.885 111.728H114.245V120H112.885V111.728ZM121.968 114.384C121.861 113.861 121.637 113.456 121.296 113.168C120.955 112.88 120.496 112.736 119.92 112.736C119.429 112.736 119.019 112.827 118.688 113.008C118.357 113.189 118.091 113.429 117.888 113.728C117.696 114.027 117.557 114.373 117.472 114.768C117.387 115.152 117.344 115.552 117.344 115.968C117.344 116.352 117.387 116.725 117.472 117.088C117.568 117.451 117.712 117.776 117.904 118.064C118.096 118.341 118.347 118.565 118.656 118.736C118.965 118.907 119.333 118.992 119.76 118.992C120.432 118.992 120.955 118.816 121.328 118.464C121.712 118.112 121.947 117.616 122.032 116.976H123.424C123.275 118 122.891 118.789 122.272 119.344C121.664 119.899 120.832 120.176 119.776 120.176C119.147 120.176 118.587 120.075 118.096 119.872C117.616 119.669 117.211 119.381 116.88 119.008C116.56 118.635 116.315 118.192 116.144 117.68C115.984 117.157 115.904 116.587 115.904 115.968C115.904 115.349 115.984 114.773 116.144 114.24C116.304 113.696 116.544 113.227 116.864 112.832C117.195 112.427 117.605 112.112 118.096 111.888C118.587 111.653 119.157 111.536 119.808 111.536C120.277 111.536 120.715 111.595 121.12 111.712C121.536 111.819 121.899 111.989 122.208 112.224C122.528 112.459 122.789 112.757 122.992 113.12C123.195 113.472 123.323 113.893 123.376 114.384H121.968ZM130.69 115.072C130.669 114.752 130.594 114.448 130.466 114.16C130.349 113.872 130.183 113.627 129.97 113.424C129.767 113.211 129.522 113.045 129.234 112.928C128.957 112.8 128.647 112.736 128.306 112.736C127.954 112.736 127.634 112.8 127.346 112.928C127.069 113.045 126.829 113.211 126.626 113.424C126.423 113.637 126.263 113.888 126.146 114.176C126.029 114.453 125.959 114.752 125.938 115.072H130.69ZM132.002 117.376C131.821 118.304 131.421 119.003 130.802 119.472C130.183 119.941 129.405 120.176 128.466 120.176C127.805 120.176 127.229 120.069 126.738 119.856C126.258 119.643 125.853 119.344 125.522 118.96C125.191 118.576 124.941 118.117 124.77 117.584C124.61 117.051 124.519 116.469 124.498 115.84C124.498 115.211 124.594 114.635 124.786 114.112C124.978 113.589 125.245 113.136 125.586 112.752C125.938 112.368 126.349 112.069 126.818 111.856C127.298 111.643 127.821 111.536 128.386 111.536C129.122 111.536 129.73 111.691 130.21 112C130.701 112.299 131.09 112.683 131.378 113.152C131.677 113.621 131.879 114.133 131.986 114.688C132.103 115.243 132.151 115.771 132.13 116.272H125.938C125.927 116.635 125.97 116.981 126.066 117.312C126.162 117.632 126.317 117.92 126.53 118.176C126.743 118.421 127.015 118.619 127.346 118.768C127.677 118.917 128.066 118.992 128.514 118.992C129.09 118.992 129.559 118.859 129.922 118.592C130.295 118.325 130.541 117.92 130.658 117.376H132.002Z" fill="white"/>
                            <circle cx="57" cy="297" r="56.5" stroke="white"/>
                            <circle cx="537" cy="297" r="56.5" stroke="white"/>
                            <circle cx="107" cy="481" r="56.5" stroke="white"/>
                            <circle cx="297" cy="536" r="56.5" stroke="white"/>
                            <circle cx="487" cy="481" r="56.5" stroke="white"/>
                            <circle cx="487" cy="115" r="56.5" stroke="white"/>
                            <circle cx="296.5" cy="296.5" r="132" stroke="white"/>
                            <circle cx="297" cy="57" r="56.5" stroke="white"/>
                            <circle cx="107" cy="115" r="56.5" stroke="white"/>
                        </svg>